<svg xmlns="http://www.w3.org/2000/svg" xmlns:xlink="http://www.w3.org/1999/xlink" width="500" zoomAndPan="magnify" viewBox="0 0 375 374.999991" height="500" preserveAspectRatio="xMidYMid meet" version="1.2"><defs><clipPath id="6d0f519c31"><path d="M 49.515625 155.859375 L 324.953125 155.859375 L 324.953125 236.109375 L 49.515625 236.109375 Z M 49.515625 155.859375 "/></clipPath><clipPath id="a4713b6cd9"><path d="M 190.964844 170.585938 L 208.3125 170.585938 L 208.3125 214.578125 L 190.964844 214.578125 Z M 190.964844 170.585938 "/></clipPath><clipPath id="736df0d112"><path d="M 200 163 L 234 163 L 234 234 L 200 234 Z M 200 163 "/></clipPath><clipPath id="dee7524566"><path d="M 184.445312 173.367188 L 230.839844 156.109375 L 253.328125 216.5625 L 206.933594 233.820312 Z M 184.445312 173.367188 "/></clipPath><clipPath id="8d5c4a3e2b"><path d="M 184.445312 173.367188 L 230.839844 156.109375 L 253.328125 216.5625 L 206.933594 233.820312 Z M 184.445312 173.367188 "/></clipPath><clipPath id="5f2d49ed5b"><path d="M 121.566406 222.777344 L 253.433594 222.777344 L 253.433594 244.496094 L 121.566406 244.496094 Z M 121.566406 222.777344 "/></clipPath></defs><g id="121a755230"><g clip-rule="nonzero" clip-path="url(#6d0f519c31)"><path style="fill:none;stroke-width:8;stroke-linecap:butt;stroke-linejoin:miter;stroke:#ffffff;stroke-opacity:1;stroke-miterlimit:4;" d="M 0.00253567 -0.00190276 L 367.949728 -0.00190276 L 367.949728 107.201228 L 0.00253567 107.201228 Z M 0.00253567 -0.00190276 " transform="matrix(0.748579,0,0,0.748579,49.513727,155.860799)"/></g><g style="fill:#000000;fill-opacity:1;"><g transform="translate(261.314548, 224.922921)"><path style="stroke:none" d="M 57.132812 -19.683594 C 57.527344 -17.980469 57.9375 -16.128906 58.363281 -14.132812 C 58.789062 -12.128906 59.183594 -10.195312 59.542969 -8.324219 C 59.898438 -6.492188 60.203125 -4.949219 60.460938 -3.699219 C 60.707031 -2.484375 60.859375 -1.773438 60.910156 -1.566406 L 57.375 -0.679688 L 60.878906 -1.683594 C 61.183594 -0.625 61.140625 0.359375 60.75 1.265625 C 60.390625 2.101562 59.8125 2.738281 59.011719 3.167969 C 58.417969 3.488281 57.777344 3.648438 57.082031 3.648438 L 32.675781 3.648438 C 32.109375 3.648438 31.574219 3.535156 31.066406 3.308594 C 30.449219 3.035156 29.941406 2.628906 29.539062 2.089844 C 29.003906 1.378906 28.734375 0.550781 28.734375 -0.390625 L 32.382812 -0.390625 L 28.96875 0.890625 C 28.714844 0.222656 28.394531 -0.972656 28 -2.6875 C 27.648438 -4.226562 27.246094 -5.933594 26.796875 -7.800781 C 26.347656 -9.652344 25.933594 -11.292969 25.550781 -12.722656 C 25.183594 -14.109375 24.945312 -14.960938 24.839844 -15.28125 C 24.734375 -15.59375 24.617188 -15.828125 24.484375 -15.976562 C 24.589844 -15.855469 24.730469 -15.738281 24.902344 -15.625 C 25.3125 -15.355469 25.777344 -15.199219 26.292969 -15.15625 C 26.96875 -15.101562 27.59375 -15.246094 28.171875 -15.585938 C 28.523438 -15.792969 28.8125 -16.050781 29.027344 -16.355469 L 28.851562 -16.109375 L 28.640625 -15.898438 C 29.019531 -16.277344 29.277344 -16.691406 29.417969 -17.144531 C 29.433594 -17.195312 29.445312 -17.238281 29.449219 -17.269531 C 29.449219 -17.261719 29.445312 -17.242188 29.441406 -17.21875 C 29.40625 -16.953125 29.378906 -16.535156 29.367188 -15.960938 L 29.269531 -11.398438 C 29.234375 -9.703125 29.183594 -8.429688 29.113281 -7.574219 L 29.109375 -7.523438 L 29.101562 -7.472656 C 28.980469 -6.378906 28.890625 -5.234375 28.828125 -4.042969 C 28.765625 -2.839844 28.734375 -1.65625 28.734375 -0.484375 C 28.734375 0.347656 28.539062 1.097656 28.144531 1.753906 C 27.785156 2.351562 27.300781 2.820312 26.695312 3.15625 C 26.109375 3.484375 25.476562 3.648438 24.796875 3.648438 L 2.917969 3.648438 C 1.621094 3.648438 0.574219 3.148438 -0.222656 2.15625 C -0.820312 1.410156 -1.117188 0.527344 -1.117188 -0.484375 L -1.117188 -0.535156 L -1.070312 -2.429688 L -0.972656 -6.742188 L -0.875 -11.261719 C -0.84375 -12.597656 -0.828125 -13.417969 -0.828125 -13.710938 L -0.828125 -39.675781 C -0.761719 -43.164062 -0.777344 -46.632812 -0.875 -50.078125 C -0.972656 -53.609375 -1.019531 -57.144531 -1.019531 -60.679688 C -1.019531 -61.695312 -0.722656 -62.574219 -0.125 -63.324219 C 0.667969 -64.316406 1.714844 -64.8125 3.015625 -64.8125 L 26.0625 -64.8125 C 26.699219 -64.8125 27.300781 -64.671875 27.863281 -64.390625 C 28.488281 -64.078125 28.996094 -63.628906 29.386719 -63.042969 C 29.859375 -62.332031 30.097656 -61.511719 30.097656 -60.582031 L 30.097656 -60.132812 L 29.988281 -59.699219 C 29.980469 -59.675781 29.953125 -59.085938 29.898438 -57.933594 C 29.832031 -56.523438 29.75 -55 29.652344 -53.363281 C 29.558594 -51.816406 29.511719 -50.589844 29.511719 -49.691406 L 25.867188 -49.691406 L 29.507812 -49.90625 C 29.574219 -48.765625 29.625 -47.558594 29.660156 -46.285156 C 29.660156 -46.179688 29.664062 -46.117188 29.667969 -46.097656 C 29.628906 -46.292969 29.542969 -46.507812 29.402344 -46.738281 C 29.039062 -47.355469 28.5 -47.792969 27.796875 -48.050781 C 27.113281 -48.300781 26.441406 -48.3125 25.785156 -48.09375 L 25.917969 -48.140625 L 26.050781 -48.171875 C 25.785156 -48.105469 25.550781 -47.992188 25.351562 -47.828125 C 25.246094 -47.742188 25.175781 -47.667969 25.136719 -47.605469 C 25.332031 -47.921875 25.480469 -48.253906 25.582031 -48.601562 L 29.074219 -47.550781 L 25.5 -48.265625 C 25.589844 -48.71875 25.832031 -49.574219 26.230469 -50.832031 L 27.441406 -54.71875 L 28.757812 -58.902344 C 29.164062 -60.191406 29.460938 -61.167969 29.640625 -61.835938 L 29.796875 -62.40625 L 30.125 -62.898438 C 30.421875 -63.339844 30.769531 -63.710938 31.167969 -64.011719 C 31.878906 -64.546875 32.671875 -64.8125 33.550781 -64.8125 L 56.984375 -64.8125 C 57.769531 -64.8125 58.488281 -64.597656 59.136719 -64.164062 C 59.707031 -63.78125 60.152344 -63.277344 60.464844 -62.652344 C 60.769531 -62.039062 60.921875 -61.351562 60.921875 -60.582031 L 60.921875 -60.480469 L 60.917969 -60.378906 C 60.839844 -58.976562 60.398438 -56.699219 59.59375 -53.554688 C 58.839844 -50.601562 58.003906 -47.523438 57.085938 -44.3125 L 54.402344 -35.324219 C 53.652344 -32.8125 53.257812 -31.375 53.21875 -31.007812 L 53.207031 -30.90625 L 53.191406 -30.808594 C 53.230469 -31.042969 53.238281 -31.253906 53.21875 -31.4375 C 53.21875 -31.457031 53.214844 -31.46875 53.214844 -31.472656 C 53.21875 -31.453125 53.226562 -31.425781 53.234375 -31.390625 C 53.296875 -31.136719 53.414062 -30.777344 53.589844 -30.316406 L 55.246094 -25.878906 C 55.945312 -23.996094 56.566406 -21.953125 57.121094 -19.75 Z M 50.042969 -17.980469 C 49.558594 -19.925781 49.015625 -21.707031 48.414062 -23.328125 L 46.765625 -27.738281 C 46.082031 -29.550781 45.824219 -30.972656 45.996094 -32.007812 L 49.59375 -31.410156 L 45.96875 -31.8125 C 46.058594 -32.613281 46.539062 -34.480469 47.414062 -37.414062 L 50.074219 -46.316406 C 50.972656 -49.460938 51.789062 -52.476562 52.527344 -55.359375 C 53.214844 -58.046875 53.582031 -59.855469 53.636719 -60.785156 L 57.277344 -60.582031 L 53.628906 -60.582031 C 53.628906 -60.203125 53.734375 -59.804688 53.941406 -59.390625 C 54.207031 -58.859375 54.589844 -58.429688 55.089844 -58.09375 C 55.664062 -57.710938 56.296875 -57.519531 56.984375 -57.519531 L 33.550781 -57.519531 C 34.292969 -57.519531 34.960938 -57.738281 35.542969 -58.175781 C 35.8125 -58.378906 36.027344 -58.601562 36.195312 -58.851562 L 33.160156 -60.875 L 36.679688 -59.914062 C 36.472656 -59.152344 36.148438 -58.089844 35.714844 -56.71875 L 34.402344 -52.542969 L 33.1875 -48.648438 C 32.871094 -47.636719 32.691406 -47.035156 32.652344 -46.835938 L 32.617188 -46.667969 L 32.570312 -46.503906 C 32.285156 -45.554688 31.882812 -44.65625 31.359375 -43.804688 C 30.484375 -42.371094 29.304688 -41.46875 27.820312 -41.097656 L 26.9375 -44.636719 L 28.089844 -41.175781 C 27.140625 -40.859375 26.210938 -40.867188 25.304688 -41.195312 C 24.375 -41.53125 23.652344 -42.140625 23.132812 -43.015625 C 22.65625 -43.820312 22.398438 -44.847656 22.367188 -46.09375 C 22.335938 -47.285156 22.289062 -48.414062 22.226562 -49.476562 L 22.21875 -49.585938 L 22.21875 -49.691406 C 22.21875 -50.738281 22.269531 -52.105469 22.371094 -53.800781 C 22.46875 -55.402344 22.546875 -56.894531 22.613281 -58.273438 C 22.6875 -59.90625 22.789062 -60.972656 22.914062 -61.46875 L 26.449219 -60.582031 L 22.804688 -60.582031 C 22.804688 -60.042969 22.976562 -59.511719 23.320312 -58.996094 C 23.644531 -58.507812 24.070312 -58.132812 24.601562 -57.867188 C 25.066406 -57.636719 25.550781 -57.519531 26.0625 -57.519531 L 3.015625 -57.519531 C 4.054688 -57.519531 4.90625 -57.933594 5.570312 -58.765625 C 6.039062 -59.351562 6.273438 -59.988281 6.273438 -60.679688 C 6.273438 -57.214844 6.320312 -53.746094 6.417969 -50.277344 C 6.515625 -46.722656 6.53125 -43.1875 6.46875 -39.675781 L 6.46875 -13.710938 C 6.46875 -13.359375 6.449219 -12.488281 6.417969 -11.105469 L 6.320312 -6.578125 L 6.222656 -2.238281 L 6.175781 -0.390625 L 2.527344 -0.484375 L 6.175781 -0.484375 C 6.175781 -1.175781 5.941406 -1.816406 5.472656 -2.398438 C 4.808594 -3.230469 3.957031 -3.648438 2.917969 -3.648438 L 24.796875 -3.648438 C 24.214844 -3.648438 23.667969 -3.503906 23.152344 -3.21875 C 22.621094 -2.921875 22.199219 -2.515625 21.890625 -1.996094 C 21.589844 -1.5 21.441406 -0.996094 21.441406 -0.484375 C 21.441406 -1.78125 21.476562 -3.089844 21.542969 -4.417969 C 21.613281 -5.753906 21.714844 -7.039062 21.851562 -8.28125 L 25.476562 -7.875 L 21.84375 -8.179688 C 21.902344 -8.882812 21.945312 -10.003906 21.976562 -11.550781 L 22.074219 -16.128906 C 22.09375 -16.984375 22.140625 -17.683594 22.21875 -18.226562 C 22.386719 -19.441406 22.808594 -20.382812 23.484375 -21.054688 L 26.0625 -18.476562 L 23.09375 -20.597656 C 23.472656 -21.128906 23.929688 -21.550781 24.460938 -21.863281 C 25.21875 -22.3125 26.03125 -22.5 26.898438 -22.425781 C 28.074219 -22.328125 29.097656 -21.78125 29.972656 -20.78125 C 30.75 -19.894531 31.34375 -18.828125 31.757812 -17.585938 C 31.910156 -17.128906 32.191406 -16.132812 32.597656 -14.601562 C 32.996094 -13.117188 33.425781 -11.417969 33.886719 -9.511719 C 34.34375 -7.617188 34.75 -5.886719 35.109375 -4.316406 C 35.429688 -2.917969 35.660156 -2.035156 35.796875 -1.667969 L 36.027344 -1.050781 L 36.027344 -0.390625 C 36.027344 -1.070312 35.808594 -1.703125 35.371094 -2.285156 C 35.015625 -2.757812 34.570312 -3.117188 34.027344 -3.355469 C 33.59375 -3.550781 33.140625 -3.648438 32.675781 -3.648438 L 57.082031 -3.648438 C 56.550781 -3.648438 56.039062 -3.515625 55.554688 -3.253906 C 54.859375 -2.878906 54.355469 -2.332031 54.046875 -1.605469 C 53.753906 -0.925781 53.695312 -0.28125 53.867188 0.320312 L 53.835938 0.203125 C 53.757812 -0.105469 53.585938 -0.917969 53.316406 -2.234375 C 53.054688 -3.511719 52.742188 -5.082031 52.382812 -6.941406 C 52.03125 -8.765625 51.648438 -10.65625 51.230469 -12.609375 C 50.8125 -14.566406 50.414062 -16.378906 50.027344 -18.046875 Z M 50.042969 -17.980469 "/></g></g><g style="fill:#ffffff;fill-opacity:1;"><g transform="translate(261.314548, 224.922921)"><path style="stroke:none" d="M 53.578125 -18.859375 C 53.972656 -17.179688 54.378906 -15.351562 54.796875 -13.375 C 55.222656 -11.394531 55.613281 -9.476562 55.96875 -7.625 C 56.320312 -5.78125 56.628906 -4.222656 56.890625 -2.953125 C 57.148438 -1.691406 57.3125 -0.9375 57.375 -0.6875 C 57.507812 -0.226562 57.410156 0 57.078125 0 L 32.671875 0 C 32.484375 0 32.390625 -0.128906 32.390625 -0.390625 C 32.191406 -0.910156 31.910156 -1.945312 31.546875 -3.5 C 31.191406 -5.050781 30.785156 -6.765625 30.328125 -8.640625 C 29.878906 -10.523438 29.460938 -12.195312 29.078125 -13.65625 C 28.691406 -15.125 28.429688 -16.050781 28.296875 -16.4375 C 28.035156 -17.21875 27.675781 -17.863281 27.21875 -18.375 C 26.769531 -18.894531 26.382812 -18.929688 26.0625 -18.484375 C 25.863281 -18.285156 25.75 -17.472656 25.71875 -16.046875 C 25.6875 -14.617188 25.65625 -13.09375 25.625 -11.46875 C 25.59375 -9.851562 25.546875 -8.65625 25.484375 -7.875 C 25.347656 -6.707031 25.25 -5.488281 25.1875 -4.21875 C 25.125 -2.957031 25.09375 -1.710938 25.09375 -0.484375 C 25.09375 -0.160156 24.992188 0 24.796875 0 L 2.921875 0 C 2.660156 0 2.53125 -0.160156 2.53125 -0.484375 C 2.53125 -0.484375 2.546875 -1.097656 2.578125 -2.328125 C 2.609375 -3.566406 2.640625 -5.007812 2.671875 -6.65625 C 2.703125 -8.3125 2.734375 -9.816406 2.765625 -11.171875 C 2.796875 -12.535156 2.8125 -13.382812 2.8125 -13.71875 L 2.8125 -39.671875 C 2.882812 -43.171875 2.867188 -46.671875 2.765625 -50.171875 C 2.671875 -53.679688 2.625 -57.1875 2.625 -60.6875 C 2.625 -61.007812 2.753906 -61.171875 3.015625 -61.171875 L 26.0625 -61.171875 C 26.320312 -61.171875 26.453125 -60.976562 26.453125 -60.59375 C 26.390625 -60.332031 26.320312 -59.503906 26.25 -58.109375 C 26.1875 -56.710938 26.109375 -55.203125 26.015625 -53.578125 C 25.921875 -51.960938 25.875 -50.664062 25.875 -49.6875 C 25.9375 -48.59375 25.984375 -47.425781 26.015625 -46.1875 C 26.046875 -44.957031 26.351562 -44.441406 26.9375 -44.640625 C 27.457031 -44.765625 27.894531 -45.117188 28.25 -45.703125 C 28.601562 -46.285156 28.878906 -46.90625 29.078125 -47.5625 C 29.140625 -47.882812 29.347656 -48.609375 29.703125 -49.734375 C 30.066406 -50.867188 30.472656 -52.164062 30.921875 -53.625 C 31.378906 -55.09375 31.816406 -56.488281 32.234375 -57.8125 C 32.660156 -59.144531 32.96875 -60.164062 33.15625 -60.875 C 33.289062 -61.070312 33.421875 -61.171875 33.546875 -61.171875 L 56.984375 -61.171875 C 57.179688 -61.171875 57.28125 -60.976562 57.28125 -60.59375 C 57.21875 -59.425781 56.8125 -57.378906 56.0625 -54.453125 C 55.320312 -51.535156 54.492188 -48.488281 53.578125 -45.3125 C 52.609375 -42.070312 51.71875 -39.085938 50.90625 -36.359375 C 50.09375 -33.640625 49.65625 -31.988281 49.59375 -31.40625 C 49.53125 -31.019531 49.722656 -30.226562 50.171875 -29.03125 C 50.628906 -27.832031 51.179688 -26.359375 51.828125 -24.609375 C 52.484375 -22.859375 53.066406 -20.941406 53.578125 -18.859375 Z M 53.578125 -18.859375 "/></g></g><g style="fill:#000000;fill-opacity:1;"><g transform="translate(208.288088, 225.071925)"><path style="stroke:none" d="M 60.339844 -16.140625 L 60.339844 -10.792969 C 60.339844 -10.3125 60.355469 -9.574219 60.386719 -8.574219 C 60.417969 -7.566406 60.464844 -6.472656 60.527344 -5.300781 C 60.59375 -4.085938 60.644531 -3.042969 60.675781 -2.183594 L 60.730469 -0.847656 L 60.730469 -0.777344 C 60.730469 0.488281 60.308594 1.542969 59.464844 2.382812 C 58.625 3.226562 57.570312 3.648438 56.304688 3.648438 L 3.695312 3.648438 C 2.179688 3.648438 0.957031 3.144531 0.0273438 2.140625 C -0.902344 1.140625 -1.3125 -0.113281 -1.207031 -1.621094 L 2.429688 -1.363281 L -1.210938 -1.507812 C -1.019531 -6.328125 -0.90625 -11.167969 -0.875 -16.019531 L -0.730469 -30.765625 C -0.664062 -35.628906 -0.484375 -40.519531 -0.1875 -45.4375 C 0.0898438 -50.046875 -0.109375 -54.625 -0.789062 -59.171875 C -1.035156 -60.664062 -0.644531 -61.992188 0.386719 -63.152344 C 1.371094 -64.257812 2.601562 -64.8125 4.085938 -64.8125 L 55.914062 -64.8125 C 56.921875 -64.8125 57.8125 -64.519531 58.589844 -63.9375 C 59.328125 -63.386719 59.847656 -62.652344 60.152344 -61.734375 L 60.339844 -61.175781 L 60.339844 -60.582031 C 60.339844 -60.441406 60.320312 -60.074219 60.285156 -59.480469 C 60.246094 -58.886719 60.191406 -58.292969 60.117188 -57.699219 L 56.5 -58.152344 L 60.144531 -58.152344 C 60.144531 -57.761719 60.109375 -56.945312 60.042969 -55.710938 C 59.980469 -54.582031 59.933594 -53.402344 59.902344 -52.175781 C 59.871094 -50.941406 59.855469 -50.015625 59.855469 -49.398438 C 59.855469 -48.835938 59.882812 -48.125 59.941406 -47.269531 C 60.003906 -46.402344 60.074219 -45.632812 60.164062 -44.960938 L 60.339844 -43.609375 L 60.339844 -43.371094 C 60.339844 -42.019531 59.859375 -40.917969 58.898438 -40.0625 C 58.058594 -39.316406 57.035156 -38.945312 55.816406 -38.945312 L 55.769531 -38.945312 L 53.828125 -38.996094 C 52.59375 -39.027344 51.023438 -39.042969 49.109375 -39.042969 L 42.933594 -39.042969 C 40.804688 -39.042969 38.835938 -39.011719 37.03125 -38.949219 C 35.292969 -38.886719 33.957031 -38.796875 33.027344 -38.683594 C 32.429688 -38.601562 31.792969 -38.410156 31.113281 -38.101562 C 31.21875 -38.148438 31.320312 -38.246094 31.417969 -38.386719 C 31.46875 -38.457031 31.503906 -38.523438 31.527344 -38.589844 L 31.535156 -38.59375 C 31.582031 -39.109375 31.429688 -39.53125 31.082031 -39.855469 C 31.300781 -39.652344 31.515625 -39.503906 31.722656 -39.410156 L 30.242188 -36.078125 L 30.957031 -39.652344 C 31.089844 -39.625 31.917969 -39.585938 33.445312 -39.527344 C 35.117188 -39.464844 37.128906 -39.433594 39.480469 -39.433594 C 41.863281 -39.433594 44.261719 -39.449219 46.675781 -39.480469 C 49.125 -39.511719 51.199219 -39.53125 52.902344 -39.53125 L 55.816406 -39.53125 C 57.035156 -39.53125 58.058594 -39.15625 58.898438 -38.414062 C 59.859375 -37.558594 60.339844 -36.457031 60.339844 -35.105469 L 60.339844 -23.53125 C 60.339844 -22.183594 59.859375 -21.078125 58.898438 -20.222656 C 58.058594 -19.480469 57.035156 -19.109375 55.816406 -19.109375 C 54.695312 -19.109375 53.136719 -19.125 51.140625 -19.15625 C 49.144531 -19.191406 47.085938 -19.238281 44.960938 -19.304688 C 42.867188 -19.367188 40.984375 -19.417969 39.3125 -19.449219 C 37.652344 -19.480469 36.539062 -19.496094 35.980469 -19.496094 L 35.980469 -23.144531 L 36.34375 -19.515625 C 35.574219 -19.4375 34.660156 -19.398438 33.597656 -19.398438 C 33.023438 -19.398438 32.488281 -19.324219 31.996094 -19.171875 C 32.148438 -19.21875 32.261719 -19.320312 32.335938 -19.472656 C 32.296875 -19.390625 32.273438 -19.339844 32.261719 -19.320312 C 32.265625 -19.324219 32.269531 -19.335938 32.273438 -19.351562 C 32.300781 -19.46875 32.308594 -19.605469 32.292969 -19.757812 C 32.257812 -20.144531 32.125 -20.449219 31.894531 -20.667969 C 32.269531 -20.304688 32.664062 -20.074219 33.070312 -19.972656 L 32.1875 -16.433594 L 32.902344 -20.011719 C 33.316406 -19.929688 34.40625 -19.886719 36.175781 -19.886719 C 38.136719 -19.886719 40.378906 -19.933594 42.890625 -20.03125 L 50.277344 -20.320312 C 52.625 -20.417969 54.410156 -20.5 55.625 -20.5625 L 55.722656 -20.566406 L 55.816406 -20.566406 C 57.035156 -20.566406 58.058594 -20.195312 58.898438 -19.453125 C 59.859375 -18.597656 60.339844 -17.492188 60.339844 -16.140625 Z M 53.046875 -16.140625 C 53.046875 -15.308594 53.382812 -14.597656 54.050781 -14 C 54.597656 -13.515625 55.183594 -13.273438 55.816406 -13.273438 L 55.816406 -16.921875 L 56.007812 -13.277344 C 54.765625 -13.214844 52.949219 -13.132812 50.566406 -13.035156 L 43.167969 -12.742188 C 40.5625 -12.640625 38.230469 -12.59375 36.175781 -12.59375 C 33.925781 -12.59375 32.355469 -12.679688 31.472656 -12.859375 L 31.386719 -12.875 L 31.304688 -12.894531 C 29.636719 -13.3125 28.148438 -14.152344 26.839844 -15.410156 C 25.769531 -16.441406 25.167969 -17.660156 25.03125 -19.066406 C 24.914062 -20.296875 25.175781 -21.519531 25.8125 -22.734375 C 26.667969 -24.441406 28.015625 -25.578125 29.851562 -26.144531 C 31.042969 -26.511719 32.292969 -26.695312 33.597656 -26.695312 C 34.417969 -26.695312 35.089844 -26.71875 35.617188 -26.773438 L 35.796875 -26.789062 L 35.980469 -26.789062 C 36.585938 -26.789062 37.746094 -26.773438 39.453125 -26.742188 C 41.152344 -26.707031 43.0625 -26.660156 45.183594 -26.59375 C 47.273438 -26.53125 49.296875 -26.480469 51.257812 -26.449219 C 53.214844 -26.417969 54.734375 -26.402344 55.816406 -26.402344 C 55.183594 -26.402344 54.597656 -26.160156 54.050781 -25.675781 C 53.382812 -25.078125 53.046875 -24.367188 53.046875 -23.53125 L 53.046875 -35.105469 C 53.046875 -34.273438 53.382812 -33.558594 54.050781 -32.960938 C 54.597656 -32.476562 55.183594 -32.234375 55.816406 -32.234375 L 52.902344 -32.234375 C 51.230469 -32.234375 49.1875 -32.21875 46.773438 -32.1875 C 44.328125 -32.15625 41.894531 -32.140625 39.480469 -32.140625 C 37.035156 -32.140625 34.933594 -32.171875 33.167969 -32.238281 C 31.257812 -32.3125 30.042969 -32.398438 29.527344 -32.5 L 29.132812 -32.582031 L 28.761719 -32.746094 C 27.800781 -33.171875 26.914062 -33.769531 26.09375 -34.535156 C 24.710938 -35.832031 24.105469 -37.453125 24.285156 -39.398438 C 24.417969 -40.597656 24.804688 -41.65625 25.445312 -42.570312 C 26.109375 -43.519531 27 -44.246094 28.109375 -44.75 C 29.441406 -45.351562 30.777344 -45.742188 32.125 -45.917969 C 33.269531 -46.0625 34.820312 -46.167969 36.777344 -46.238281 C 38.667969 -46.304688 40.71875 -46.335938 42.933594 -46.335938 L 49.109375 -46.335938 C 51.085938 -46.335938 52.71875 -46.320312 54.015625 -46.285156 L 55.910156 -46.238281 L 55.816406 -42.59375 L 55.816406 -46.238281 C 55.183594 -46.238281 54.597656 -45.996094 54.050781 -45.511719 C 53.382812 -44.917969 53.046875 -44.203125 53.046875 -43.371094 L 56.691406 -43.371094 L 53.078125 -42.898438 L 52.929688 -44.015625 C 52.824219 -44.835938 52.734375 -45.753906 52.664062 -46.765625 C 52.59375 -47.789062 52.558594 -48.667969 52.558594 -49.398438 C 52.558594 -50.078125 52.578125 -51.066406 52.609375 -52.363281 C 52.644531 -53.664062 52.691406 -54.914062 52.761719 -56.117188 C 52.820312 -57.21875 52.851562 -57.894531 52.851562 -58.152344 L 52.851562 -58.378906 L 52.878906 -58.605469 C 52.933594 -59.046875 52.976562 -59.492188 53.003906 -59.933594 C 53.019531 -60.1875 53.03125 -60.378906 53.039062 -60.519531 C 53.042969 -60.578125 53.046875 -60.625 53.046875 -60.65625 C 53.046875 -60.664062 53.046875 -60.667969 53.046875 -60.667969 C 53.046875 -60.644531 53.046875 -60.613281 53.046875 -60.582031 L 56.691406 -60.582031 L 53.234375 -59.429688 C 53.410156 -58.902344 53.734375 -58.460938 54.214844 -58.101562 C 54.730469 -57.714844 55.300781 -57.519531 55.914062 -57.519531 L 4.085938 -57.519531 C 4.785156 -57.519531 5.371094 -57.78125 5.835938 -58.304688 C 6.351562 -58.882812 6.546875 -59.527344 6.425781 -60.242188 C 7.175781 -55.195312 7.398438 -50.113281 7.09375 -45 C 6.804688 -40.195312 6.628906 -35.425781 6.5625 -30.691406 L 6.417969 -15.972656 C 6.386719 -11.039062 6.269531 -6.117188 6.074219 -1.214844 L 6.074219 -1.160156 L 6.070312 -1.101562 C 6.082031 -1.273438 6.058594 -1.472656 6 -1.691406 C 5.890625 -2.109375 5.679688 -2.488281 5.371094 -2.820312 C 5.058594 -3.15625 4.699219 -3.394531 4.285156 -3.535156 C 4.066406 -3.609375 3.871094 -3.648438 3.695312 -3.648438 L 56.304688 -3.648438 C 55.554688 -3.648438 54.890625 -3.355469 54.308594 -2.773438 C 53.726562 -2.191406 53.433594 -1.527344 53.433594 -0.777344 L 57.082031 -0.777344 L 53.4375 -0.636719 L 53.390625 -1.902344 C 53.359375 -2.726562 53.308594 -3.726562 53.246094 -4.910156 C 53.179688 -6.136719 53.128906 -7.28125 53.097656 -8.347656 C 53.0625 -9.421875 53.046875 -10.238281 53.046875 -10.792969 Z M 53.046875 -16.140625 "/></g></g><g style="fill:#ffffff;fill-opacity:1;"><g transform="translate(208.288088, 225.071925)"><path style="stroke:none" d="M 56.703125 -16.140625 C 56.703125 -15.296875 56.703125 -14.367188 56.703125 -13.359375 C 56.703125 -12.359375 56.703125 -11.503906 56.703125 -10.796875 C 56.703125 -10.273438 56.71875 -9.492188 56.75 -8.453125 C 56.78125 -7.421875 56.828125 -6.304688 56.890625 -5.109375 C 56.953125 -3.910156 57 -2.890625 57.03125 -2.046875 C 57.0625 -1.203125 57.078125 -0.78125 57.078125 -0.78125 C 57.078125 -0.257812 56.820312 0 56.3125 0 L 3.703125 0 C 2.785156 0 2.363281 -0.453125 2.4375 -1.359375 C 2.625 -6.222656 2.734375 -11.101562 2.765625 -16 C 2.796875 -20.894531 2.847656 -25.804688 2.921875 -30.734375 C 2.984375 -35.523438 3.160156 -40.351562 3.453125 -45.21875 C 3.742188 -50.082031 3.53125 -54.914062 2.8125 -59.71875 C 2.75 -60.101562 2.847656 -60.441406 3.109375 -60.734375 C 3.367188 -61.023438 3.691406 -61.171875 4.078125 -61.171875 L 55.921875 -61.171875 C 56.304688 -61.171875 56.566406 -60.976562 56.703125 -60.59375 C 56.703125 -60.519531 56.679688 -60.222656 56.640625 -59.703125 C 56.609375 -59.191406 56.5625 -58.675781 56.5 -58.15625 C 56.5 -57.832031 56.46875 -57.085938 56.40625 -55.921875 C 56.34375 -54.753906 56.289062 -53.535156 56.25 -52.265625 C 56.21875 -51.003906 56.203125 -50.050781 56.203125 -49.40625 C 56.203125 -48.757812 56.234375 -47.960938 56.296875 -47.015625 C 56.367188 -46.078125 56.453125 -45.234375 56.546875 -44.484375 C 56.648438 -43.742188 56.703125 -43.375 56.703125 -43.375 C 56.703125 -42.851562 56.410156 -42.59375 55.828125 -42.59375 C 55.828125 -42.59375 55.191406 -42.609375 53.921875 -42.640625 C 52.660156 -42.671875 51.054688 -42.6875 49.109375 -42.6875 C 47.160156 -42.6875 45.097656 -42.6875 42.921875 -42.6875 C 40.753906 -42.6875 38.75 -42.65625 36.90625 -42.59375 C 35.0625 -42.53125 33.617188 -42.429688 32.578125 -42.296875 C 31.609375 -42.171875 30.617188 -41.878906 29.609375 -41.421875 C 28.609375 -40.972656 28.039062 -40.164062 27.90625 -39 C 27.84375 -38.28125 28.070312 -37.675781 28.59375 -37.1875 C 29.113281 -36.707031 29.664062 -36.335938 30.25 -36.078125 C 30.570312 -36.015625 31.59375 -35.945312 33.3125 -35.875 C 35.03125 -35.8125 37.085938 -35.78125 39.484375 -35.78125 C 41.878906 -35.78125 44.289062 -35.796875 46.71875 -35.828125 C 49.15625 -35.867188 51.21875 -35.890625 52.90625 -35.890625 C 54.59375 -35.890625 55.566406 -35.890625 55.828125 -35.890625 C 56.410156 -35.890625 56.703125 -35.628906 56.703125 -35.109375 L 56.703125 -27.03125 C 56.703125 -26.320312 56.703125 -25.707031 56.703125 -25.1875 C 56.703125 -24.664062 56.703125 -24.113281 56.703125 -23.53125 C 56.703125 -23.007812 56.410156 -22.75 55.828125 -22.75 C 54.722656 -22.75 53.179688 -22.765625 51.203125 -22.796875 C 49.222656 -22.835938 47.179688 -22.890625 45.078125 -22.953125 C 42.972656 -23.015625 41.078125 -23.0625 39.390625 -23.09375 C 37.703125 -23.125 36.566406 -23.140625 35.984375 -23.140625 C 35.335938 -23.078125 34.539062 -23.046875 33.59375 -23.046875 C 32.65625 -23.046875 31.765625 -22.914062 30.921875 -22.65625 C 30.078125 -22.394531 29.460938 -21.878906 29.078125 -21.109375 C 28.429688 -19.867188 28.53125 -18.84375 29.375 -18.03125 C 30.21875 -17.226562 31.15625 -16.695312 32.1875 -16.4375 C 32.832031 -16.300781 34.160156 -16.234375 36.171875 -16.234375 C 38.179688 -16.234375 40.46875 -16.28125 43.03125 -16.375 C 45.59375 -16.476562 48.054688 -16.578125 50.421875 -16.671875 C 52.785156 -16.773438 54.585938 -16.859375 55.828125 -16.921875 C 56.410156 -16.921875 56.703125 -16.660156 56.703125 -16.140625 Z M 56.703125 -16.140625 "/></g></g><g clip-rule="nonzero" clip-path="url(#a4713b6cd9)"><path style=" stroke:none;fill-rule:nonzero;fill:#ffffff;fill-opacity:1;" d="M 190.964844 170.585938 L 208.3125 170.585938 L 208.3125 214.570312 L 190.964844 214.570312 Z M 190.964844 170.585938 "/></g><g clip-rule="nonzero" clip-path="url(#736df0d112)"><g clip-rule="nonzero" clip-path="url(#dee7524566)"><g clip-rule="nonzero" clip-path="url(#8d5c4a3e2b)"><path style=" stroke:none;fill-rule:nonzero;fill:#000000;fill-opacity:1;" d="M 209.820312 163.929688 L 200.171875 199.773438 L 211.519531 199.386719 L 206.78125 233.40625 L 230.320312 188.558594 L 219.597656 188.8125 L 233.632812 163.625 Z M 209.820312 163.929688 "/></g></g></g><g clip-rule="nonzero" clip-path="url(#5f2d49ed5b)"><path style=" stroke:none;fill-rule:nonzero;fill:#000000;fill-opacity:1;" d="M 121.566406 222.777344 L 253.402344 222.777344 L 253.402344 244.496094 L 121.566406 244.496094 Z M 121.566406 222.777344 "/></g><g style="fill:#000000;fill-opacity:1;"><g transform="translate(154.344165, 224.922921)"><path style="stroke:none" d="M 55.09375 -20.203125 C 55.757812 -18.878906 56.40625 -17.238281 57.046875 -15.285156 C 57.648438 -13.453125 58.210938 -11.585938 58.746094 -9.6875 C 59.273438 -7.8125 59.714844 -6.164062 60.082031 -4.746094 C 60.46875 -3.222656 60.707031 -2.171875 60.789062 -1.585938 L 57.179688 -1.070312 L 60.765625 -1.722656 C 60.984375 -0.519531 60.839844 0.546875 60.332031 1.480469 C 59.917969 2.238281 59.324219 2.808594 58.554688 3.195312 C 57.953125 3.496094 57.300781 3.648438 56.597656 3.648438 L 34.910156 3.648438 C 33.640625 3.648438 32.601562 3.160156 31.792969 2.1875 C 31.289062 1.585938 30.96875 0.859375 30.828125 0.015625 L 34.425781 -0.582031 L 30.917969 0.417969 C 30.804688 0.0234375 30.53125 -0.808594 30.097656 -2.078125 C 29.660156 -3.359375 29.140625 -4.773438 28.542969 -6.316406 C 27.945312 -7.855469 27.382812 -9.238281 26.851562 -10.457031 C 26.4375 -11.402344 26.183594 -11.933594 26.078125 -12.058594 L 28.882812 -14.390625 L 26.300781 -11.8125 C 26.660156 -11.453125 27.101562 -11.222656 27.621094 -11.121094 C 28.050781 -11.035156 28.449219 -11.050781 28.820312 -11.175781 C 29.25 -11.320312 29.621094 -11.582031 29.929688 -11.964844 C 30.226562 -12.332031 30.402344 -12.730469 30.457031 -13.160156 L 26.839844 -13.613281 L 30.476562 -13.378906 C 30.351562 -11.429688 30.273438 -9.398438 30.242188 -7.289062 C 30.210938 -5.171875 30.226562 -3.105469 30.289062 -1.085938 L 26.644531 -0.972656 L 30.273438 -1.335938 C 30.386719 -0.210938 30.1875 0.78125 29.675781 1.632812 C 29.261719 2.320312 28.699219 2.84375 27.984375 3.199219 C 27.390625 3.5 26.75 3.648438 26.0625 3.648438 L 3.304688 3.648438 C 2.636719 3.648438 2.007812 3.5 1.421875 3.207031 C 0.769531 2.882812 0.242188 2.414062 -0.164062 1.804688 C -0.671875 1.046875 -0.925781 0.152344 -0.925781 -0.875 L -0.925781 -9.140625 C -0.925781 -9.492188 -0.90625 -10.367188 -0.875 -11.757812 C -0.84375 -13.089844 -0.828125 -14.679688 -0.828125 -16.53125 L -0.828125 -22.171875 C -0.828125 -24.023438 -0.84375 -25.613281 -0.875 -26.945312 C -0.90625 -28.335938 -0.925781 -29.207031 -0.925781 -29.5625 L -0.925781 -41.621094 L -0.730469 -51.175781 C -0.664062 -54.335938 -0.664062 -57.476562 -0.730469 -60.605469 C -0.730469 -61.492188 -0.53125 -62.261719 -0.136719 -62.921875 C 0.222656 -63.519531 0.703125 -63.988281 1.308594 -64.324219 C 1.898438 -64.648438 2.53125 -64.8125 3.210938 -64.8125 L 44.441406 -64.8125 C 46.101562 -64.8125 47.75 -64.414062 49.386719 -63.621094 C 50.777344 -62.945312 52.097656 -62.097656 53.351562 -61.078125 L 53.410156 -61.03125 L 53.464844 -60.984375 C 54.847656 -59.765625 56.007812 -58.378906 56.945312 -56.832031 C 57.742188 -55.515625 58.324219 -54.488281 58.691406 -53.753906 L 58.734375 -53.664062 L 58.773438 -53.574219 C 59.769531 -51.277344 60.382812 -48.933594 60.613281 -46.542969 C 60.820312 -44.414062 60.921875 -41.996094 60.921875 -39.285156 C 60.921875 -37.359375 60.75 -35.191406 60.398438 -32.78125 C 60.027344 -30.214844 59.511719 -28.191406 58.859375 -26.71875 L 55.527344 -28.199219 L 58.890625 -26.796875 C 58.5 -25.855469 57.964844 -24.824219 57.292969 -23.699219 C 56.691406 -22.699219 56.15625 -21.828125 55.683594 -21.089844 C 55.089844 -20.152344 54.664062 -19.554688 54.410156 -19.300781 L 53.339844 -18.234375 L 51.734375 -18.234375 L 51.734375 -21.878906 L 54.3125 -19.300781 C 54.472656 -19.460938 54.601562 -19.675781 54.695312 -19.941406 C 54.820312 -20.296875 54.851562 -20.652344 54.789062 -21.007812 C 54.824219 -20.804688 54.925781 -20.535156 55.09375 -20.203125 Z M 48.570312 -16.941406 C 48.085938 -17.90625 47.765625 -18.839844 47.605469 -19.738281 C 47.449219 -20.644531 47.519531 -21.527344 47.824219 -22.382812 C 48.09375 -23.152344 48.539062 -23.84375 49.15625 -24.457031 L 50.222656 -25.527344 L 51.832031 -25.527344 L 51.832031 -21.878906 L 49.253906 -24.457031 C 49.125 -24.332031 49.023438 -24.214844 48.949219 -24.109375 C 48.964844 -24.132812 48.996094 -24.179688 49.039062 -24.242188 C 49.15625 -24.417969 49.320312 -24.671875 49.53125 -25.003906 C 49.96875 -25.691406 50.46875 -26.507812 51.039062 -27.453125 C 51.53125 -28.273438 51.902344 -28.988281 52.160156 -29.601562 L 52.175781 -29.644531 L 52.195312 -29.683594 C 52.574219 -30.542969 52.90625 -31.925781 53.179688 -33.828125 C 53.480469 -35.890625 53.628906 -37.710938 53.628906 -39.285156 C 53.628906 -41.761719 53.539062 -43.945312 53.355469 -45.839844 C 53.199219 -47.46875 52.773438 -49.078125 52.082031 -50.671875 L 55.429688 -52.121094 L 52.167969 -50.492188 C 51.886719 -51.050781 51.398438 -51.90625 50.703125 -53.054688 C 50.152344 -53.96875 49.464844 -54.789062 48.640625 -55.515625 L 51.054688 -58.25 L 48.753906 -55.417969 C 47.933594 -56.085938 47.082031 -56.632812 46.203125 -57.058594 C 45.570312 -57.367188 44.984375 -57.519531 44.441406 -57.519531 L 3.210938 -57.519531 C 3.789062 -57.519531 4.339844 -57.664062 4.851562 -57.949219 C 5.386719 -58.242188 5.808594 -58.652344 6.117188 -59.167969 C 6.414062 -59.664062 6.5625 -60.195312 6.5625 -60.753906 C 6.628906 -57.527344 6.628906 -54.285156 6.5625 -51.027344 L 6.371094 -41.621094 L 6.371094 -29.5625 C 6.371094 -29.265625 6.386719 -28.453125 6.417969 -27.121094 C 6.449219 -25.730469 6.46875 -24.082031 6.46875 -22.171875 L 6.46875 -16.53125 C 6.46875 -14.621094 6.449219 -12.972656 6.417969 -11.582031 C 6.386719 -10.25 6.371094 -9.4375 6.371094 -9.140625 L 6.371094 -0.875 C 6.371094 -1.320312 6.214844 -1.773438 5.902344 -2.242188 C 5.59375 -2.707031 5.1875 -3.0625 4.683594 -3.316406 C 4.242188 -3.535156 3.78125 -3.648438 3.304688 -3.648438 L 26.0625 -3.648438 C 25.601562 -3.648438 25.15625 -3.539062 24.722656 -3.324219 C 24.167969 -3.046875 23.734375 -2.644531 23.421875 -2.121094 C 23.101562 -1.589844 22.96875 -1.085938 23.015625 -0.609375 L 23.003906 -0.734375 L 23 -0.859375 C 22.933594 -2.988281 22.917969 -5.167969 22.949219 -7.394531 C 22.984375 -9.628906 23.066406 -11.777344 23.199219 -13.847656 L 23.207031 -13.957031 L 23.21875 -14.066406 C 23.339844 -15.015625 23.6875 -15.84375 24.261719 -16.554688 C 24.84375 -17.273438 25.59375 -17.789062 26.511719 -18.09375 C 27.367188 -18.378906 28.214844 -18.4375 29.050781 -18.273438 C 29.972656 -18.085938 30.777344 -17.652344 31.460938 -16.972656 L 31.578125 -16.855469 L 31.683594 -16.726562 C 32.230469 -16.070312 32.847656 -14.953125 33.539062 -13.371094 C 34.109375 -12.058594 34.710938 -10.585938 35.34375 -8.953125 C 35.980469 -7.316406 36.53125 -5.8125 37 -4.4375 C 37.472656 -3.046875 37.785156 -2.097656 37.929688 -1.585938 L 37.988281 -1.386719 L 38.019531 -1.183594 C 37.945312 -1.640625 37.738281 -2.070312 37.394531 -2.480469 C 36.746094 -3.257812 35.917969 -3.648438 34.910156 -3.648438 L 56.597656 -3.648438 C 56.152344 -3.648438 55.71875 -3.539062 55.292969 -3.328125 C 54.699219 -3.03125 54.246094 -2.59375 53.929688 -2.015625 C 53.613281 -1.4375 53.503906 -0.90625 53.589844 -0.417969 L 53.578125 -0.484375 L 53.570312 -0.554688 C 53.523438 -0.878906 53.339844 -1.671875 53.015625 -2.9375 C 52.664062 -4.304688 52.234375 -5.898438 51.722656 -7.71875 C 51.21875 -9.515625 50.683594 -11.28125 50.117188 -13.015625 C 49.585938 -14.625 49.070312 -15.9375 48.570312 -16.941406 Z M 27.378906 -35.472656 C 27.4375 -36.742188 27.453125 -37.898438 27.425781 -38.9375 C 27.394531 -39.957031 27.324219 -40.925781 27.207031 -41.847656 C 27.136719 -42.5 27.046875 -42.984375 26.941406 -43.300781 C 26.929688 -43.335938 26.917969 -43.367188 26.90625 -43.386719 C 26.910156 -43.382812 26.917969 -43.371094 26.925781 -43.351562 C 27.011719 -43.207031 27.132812 -43.0625 27.296875 -42.921875 C 27.3125 -42.90625 27.359375 -42.882812 27.433594 -42.851562 C 27.609375 -42.777344 27.800781 -42.738281 28.007812 -42.738281 C 28.382812 -42.738281 28.722656 -42.84375 29.027344 -43.058594 C 29.242188 -43.207031 29.433594 -43.410156 29.605469 -43.667969 C 29.933594 -44.160156 30.097656 -44.710938 30.097656 -45.316406 L 30.097656 -42.105469 C 30.097656 -41.046875 30.082031 -39.644531 30.046875 -37.90625 C 30.015625 -36.28125 30.03125 -34.964844 30.089844 -33.957031 L 30.097656 -33.851562 L 30.097656 -33.742188 C 30.097656 -33.554688 30.132812 -33.300781 30.203125 -32.980469 C 30.066406 -33.597656 29.734375 -34.09375 29.203125 -34.472656 C 28.882812 -34.703125 28.585938 -34.828125 28.308594 -34.847656 L 28.007812 -31.214844 L 28.007812 -34.863281 C 27.769531 -34.863281 27.558594 -34.816406 27.371094 -34.726562 C 27.324219 -34.703125 27.292969 -34.683594 27.269531 -34.664062 C 27.277344 -34.675781 27.296875 -34.691406 27.324219 -34.71875 C 27.261719 -34.65625 27.214844 -34.597656 27.179688 -34.542969 L 27.179688 -34.539062 C 27.1875 -34.554688 27.195312 -34.578125 27.207031 -34.609375 C 27.289062 -34.84375 27.347656 -35.179688 27.386719 -35.617188 L 31.019531 -35.300781 Z M 34.664062 -35.125 L 34.660156 -35.054688 L 34.652344 -34.984375 C 34.449219 -32.609375 33.722656 -30.800781 32.480469 -29.558594 C 31.152344 -28.230469 29.660156 -27.570312 28.007812 -27.570312 L 27.855469 -27.570312 L 27.703125 -27.582031 C 26.648438 -27.667969 25.734375 -27.988281 24.960938 -28.539062 C 23.976562 -29.242188 23.351562 -30.195312 23.085938 -31.398438 C 22.898438 -32.242188 22.804688 -33.023438 22.804688 -33.742188 L 26.449219 -33.742188 L 22.808594 -33.53125 C 22.738281 -34.726562 22.722656 -36.230469 22.753906 -38.042969 C 22.789062 -39.738281 22.804688 -41.09375 22.804688 -42.105469 L 22.804688 -45.316406 C 22.804688 -46.179688 23.046875 -46.980469 23.539062 -47.714844 C 23.871094 -48.21875 24.308594 -48.65625 24.84375 -49.03125 C 25.796875 -49.699219 26.851562 -50.03125 28.007812 -50.03125 C 29.507812 -50.03125 30.878906 -49.484375 32.121094 -48.390625 C 33.375 -47.28125 34.152344 -45.402344 34.445312 -42.753906 C 34.589844 -41.601562 34.679688 -40.398438 34.714844 -39.148438 C 34.75 -37.921875 34.734375 -36.578125 34.664062 -35.125 Z M 34.664062 -35.125 "/></g></g><g style="fill:#ffffff;fill-opacity:1;"><g transform="translate(154.344165, 224.922921)"><path style="stroke:none" d="M 51.828125 -18.578125 C 52.410156 -17.410156 52.992188 -15.929688 53.578125 -14.140625 C 54.160156 -12.359375 54.710938 -10.546875 55.234375 -8.703125 C 55.753906 -6.859375 56.191406 -5.238281 56.546875 -3.84375 C 56.898438 -2.445312 57.113281 -1.519531 57.1875 -1.0625 C 57.3125 -0.351562 57.113281 0 56.59375 0 L 34.90625 0 C 34.65625 0 34.492188 -0.191406 34.421875 -0.578125 C 34.296875 -1.035156 34.003906 -1.925781 33.546875 -3.25 C 33.097656 -4.582031 32.5625 -6.039062 31.9375 -7.625 C 31.320312 -9.21875 30.738281 -10.644531 30.1875 -11.90625 C 29.644531 -13.175781 29.210938 -14.003906 28.890625 -14.390625 C 28.554688 -14.710938 28.144531 -14.789062 27.65625 -14.625 C 27.175781 -14.46875 26.90625 -14.128906 26.84375 -13.609375 C 26.707031 -11.597656 26.625 -9.503906 26.59375 -7.328125 C 26.5625 -5.160156 26.578125 -3.039062 26.640625 -0.96875 C 26.710938 -0.320312 26.519531 0 26.0625 0 L 3.3125 0 C 2.914062 0 2.71875 -0.289062 2.71875 -0.875 L 2.71875 -9.140625 C 2.71875 -9.460938 2.734375 -10.304688 2.765625 -11.671875 C 2.796875 -13.035156 2.8125 -14.65625 2.8125 -16.53125 C 2.8125 -18.414062 2.8125 -20.296875 2.8125 -22.171875 C 2.8125 -24.054688 2.796875 -25.675781 2.765625 -27.03125 C 2.734375 -28.394531 2.71875 -29.238281 2.71875 -29.5625 L 2.71875 -41.625 C 2.78125 -44.738281 2.84375 -47.898438 2.90625 -51.109375 C 2.976562 -54.316406 2.984375 -57.507812 2.921875 -60.6875 C 2.921875 -61.007812 3.015625 -61.171875 3.203125 -61.171875 L 44.4375 -61.171875 C 45.539062 -61.171875 46.660156 -60.894531 47.796875 -60.34375 C 48.929688 -59.789062 50.019531 -59.09375 51.0625 -58.25 C 52.15625 -57.28125 53.078125 -56.175781 53.828125 -54.9375 C 54.578125 -53.707031 55.113281 -52.769531 55.4375 -52.125 C 56.28125 -50.175781 56.796875 -48.195312 56.984375 -46.1875 C 57.179688 -44.175781 57.28125 -41.875 57.28125 -39.28125 C 57.28125 -37.53125 57.117188 -35.535156 56.796875 -33.296875 C 56.472656 -31.066406 56.050781 -29.367188 55.53125 -28.203125 C 55.207031 -27.421875 54.753906 -26.546875 54.171875 -25.578125 C 53.585938 -24.609375 53.066406 -23.765625 52.609375 -23.046875 C 52.160156 -22.335938 51.898438 -21.945312 51.828125 -21.875 C 51.828125 -21.875 51.796875 -21.875 51.734375 -21.875 C 51.285156 -21.425781 51.109375 -20.925781 51.203125 -20.375 C 51.296875 -19.820312 51.503906 -19.222656 51.828125 -18.578125 Z M 31.015625 -35.296875 C 31.085938 -36.660156 31.101562 -37.910156 31.0625 -39.046875 C 31.03125 -40.179688 30.953125 -41.265625 30.828125 -42.296875 C 30.628906 -44.046875 30.253906 -45.164062 29.703125 -45.65625 C 29.160156 -46.144531 28.597656 -46.390625 28.015625 -46.390625 C 27.617188 -46.390625 27.257812 -46.273438 26.9375 -46.046875 C 26.613281 -45.816406 26.453125 -45.570312 26.453125 -45.3125 C 26.453125 -44.925781 26.453125 -44.441406 26.453125 -43.859375 C 26.453125 -43.273438 26.453125 -42.691406 26.453125 -42.109375 C 26.453125 -41.066406 26.4375 -39.6875 26.40625 -37.96875 C 26.375 -36.257812 26.390625 -34.851562 26.453125 -33.75 C 26.453125 -33.289062 26.515625 -32.769531 26.640625 -32.1875 C 26.773438 -31.601562 27.234375 -31.28125 28.015625 -31.21875 C 28.660156 -31.21875 29.289062 -31.523438 29.90625 -32.140625 C 30.519531 -32.753906 30.890625 -33.804688 31.015625 -35.296875 Z M 31.015625 -35.296875 "/></g></g><g style="fill:#000000;fill-opacity:1;"><g transform="translate(95.347359, 225.071925)"><path style="stroke:none" d="M 60.339844 -16.140625 L 60.339844 -10.792969 C 60.339844 -10.3125 60.355469 -9.574219 60.386719 -8.574219 C 60.417969 -7.566406 60.464844 -6.472656 60.527344 -5.300781 C 60.59375 -4.085938 60.644531 -3.042969 60.675781 -2.183594 L 60.730469 -0.847656 L 60.730469 -0.777344 C 60.730469 0.488281 60.308594 1.542969 59.464844 2.382812 C 58.625 3.226562 57.570312 3.648438 56.304688 3.648438 L 3.695312 3.648438 C 2.179688 3.648438 0.957031 3.144531 0.0273438 2.140625 C -0.902344 1.140625 -1.3125 -0.113281 -1.207031 -1.621094 L 2.429688 -1.363281 L -1.210938 -1.507812 C -1.019531 -6.328125 -0.90625 -11.167969 -0.875 -16.019531 L -0.730469 -30.765625 C -0.664062 -35.628906 -0.484375 -40.519531 -0.1875 -45.4375 C 0.0898438 -50.046875 -0.109375 -54.625 -0.789062 -59.171875 C -1.035156 -60.664062 -0.644531 -61.992188 0.386719 -63.152344 C 1.371094 -64.257812 2.601562 -64.8125 4.085938 -64.8125 L 55.914062 -64.8125 C 56.921875 -64.8125 57.8125 -64.519531 58.589844 -63.9375 C 59.328125 -63.386719 59.847656 -62.652344 60.152344 -61.734375 L 60.339844 -61.175781 L 60.339844 -60.582031 C 60.339844 -60.441406 60.320312 -60.074219 60.285156 -59.480469 C 60.246094 -58.886719 60.191406 -58.292969 60.117188 -57.699219 L 56.5 -58.152344 L 60.144531 -58.152344 C 60.144531 -57.761719 60.109375 -56.945312 60.042969 -55.710938 C 59.980469 -54.582031 59.933594 -53.402344 59.902344 -52.175781 C 59.871094 -50.941406 59.855469 -50.015625 59.855469 -49.398438 C 59.855469 -48.835938 59.882812 -48.125 59.941406 -47.269531 C 60.003906 -46.402344 60.074219 -45.632812 60.164062 -44.960938 L 60.339844 -43.609375 L 60.339844 -43.371094 C 60.339844 -42.019531 59.859375 -40.917969 58.898438 -40.0625 C 58.058594 -39.316406 57.035156 -38.945312 55.816406 -38.945312 L 55.769531 -38.945312 L 53.828125 -38.996094 C 52.59375 -39.027344 51.023438 -39.042969 49.109375 -39.042969 L 42.933594 -39.042969 C 40.804688 -39.042969 38.835938 -39.011719 37.03125 -38.949219 C 35.292969 -38.886719 33.957031 -38.796875 33.027344 -38.683594 C 32.429688 -38.601562 31.792969 -38.410156 31.113281 -38.101562 C 31.21875 -38.148438 31.320312 -38.246094 31.417969 -38.386719 C 31.46875 -38.457031 31.503906 -38.523438 31.527344 -38.589844 L 31.535156 -38.59375 C 31.582031 -39.109375 31.429688 -39.53125 31.082031 -39.855469 C 31.300781 -39.652344 31.515625 -39.503906 31.722656 -39.410156 L 30.242188 -36.078125 L 30.957031 -39.652344 C 31.089844 -39.625 31.917969 -39.585938 33.445312 -39.527344 C 35.117188 -39.464844 37.128906 -39.433594 39.480469 -39.433594 C 41.863281 -39.433594 44.261719 -39.449219 46.675781 -39.480469 C 49.125 -39.511719 51.199219 -39.53125 52.902344 -39.53125 L 55.816406 -39.53125 C 57.035156 -39.53125 58.058594 -39.15625 58.898438 -38.414062 C 59.859375 -37.558594 60.339844 -36.457031 60.339844 -35.105469 L 60.339844 -23.53125 C 60.339844 -22.183594 59.859375 -21.078125 58.898438 -20.222656 C 58.058594 -19.480469 57.035156 -19.109375 55.816406 -19.109375 C 54.695312 -19.109375 53.136719 -19.125 51.140625 -19.15625 C 49.144531 -19.191406 47.085938 -19.238281 44.960938 -19.304688 C 42.867188 -19.367188 40.984375 -19.417969 39.3125 -19.449219 C 37.652344 -19.480469 36.539062 -19.496094 35.980469 -19.496094 L 35.980469 -23.144531 L 36.34375 -19.515625 C 35.574219 -19.4375 34.660156 -19.398438 33.597656 -19.398438 C 33.023438 -19.398438 32.488281 -19.324219 31.996094 -19.171875 C 32.148438 -19.21875 32.261719 -19.320312 32.335938 -19.472656 C 32.296875 -19.390625 32.273438 -19.339844 32.261719 -19.320312 C 32.265625 -19.324219 32.269531 -19.335938 32.273438 -19.351562 C 32.300781 -19.46875 32.308594 -19.605469 32.292969 -19.757812 C 32.257812 -20.144531 32.125 -20.449219 31.894531 -20.667969 C 32.269531 -20.304688 32.664062 -20.074219 33.070312 -19.972656 L 32.1875 -16.433594 L 32.902344 -20.011719 C 33.316406 -19.929688 34.40625 -19.886719 36.175781 -19.886719 C 38.136719 -19.886719 40.378906 -19.933594 42.890625 -20.03125 L 50.277344 -20.320312 C 52.625 -20.417969 54.410156 -20.5 55.625 -20.5625 L 55.722656 -20.566406 L 55.816406 -20.566406 C 57.035156 -20.566406 58.058594 -20.195312 58.898438 -19.453125 C 59.859375 -18.597656 60.339844 -17.492188 60.339844 -16.140625 Z M 53.046875 -16.140625 C 53.046875 -15.308594 53.382812 -14.597656 54.050781 -14 C 54.597656 -13.515625 55.183594 -13.273438 55.816406 -13.273438 L 55.816406 -16.921875 L 56.007812 -13.277344 C 54.765625 -13.214844 52.949219 -13.132812 50.566406 -13.035156 L 43.167969 -12.742188 C 40.5625 -12.640625 38.230469 -12.59375 36.175781 -12.59375 C 33.925781 -12.59375 32.355469 -12.679688 31.472656 -12.859375 L 31.386719 -12.875 L 31.304688 -12.894531 C 29.636719 -13.3125 28.148438 -14.152344 26.839844 -15.410156 C 25.769531 -16.441406 25.167969 -17.660156 25.03125 -19.066406 C 24.914062 -20.296875 25.175781 -21.519531 25.8125 -22.734375 C 26.667969 -24.441406 28.015625 -25.578125 29.851562 -26.144531 C 31.042969 -26.511719 32.292969 -26.695312 33.597656 -26.695312 C 34.417969 -26.695312 35.089844 -26.71875 35.617188 -26.773438 L 35.796875 -26.789062 L 35.980469 -26.789062 C 36.585938 -26.789062 37.746094 -26.773438 39.453125 -26.742188 C 41.152344 -26.707031 43.0625 -26.660156 45.183594 -26.59375 C 47.273438 -26.53125 49.296875 -26.480469 51.257812 -26.449219 C 53.214844 -26.417969 54.734375 -26.402344 55.816406 -26.402344 C 55.183594 -26.402344 54.597656 -26.160156 54.050781 -25.675781 C 53.382812 -25.078125 53.046875 -24.367188 53.046875 -23.53125 L 53.046875 -35.105469 C 53.046875 -34.273438 53.382812 -33.558594 54.050781 -32.960938 C 54.597656 -32.476562 55.183594 -32.234375 55.816406 -32.234375 L 52.902344 -32.234375 C 51.230469 -32.234375 49.1875 -32.21875 46.773438 -32.1875 C 44.328125 -32.15625 41.894531 -32.140625 39.480469 -32.140625 C 37.035156 -32.140625 34.933594 -32.171875 33.167969 -32.238281 C 31.257812 -32.3125 30.042969 -32.398438 29.527344 -32.5 L 29.132812 -32.582031 L 28.761719 -32.746094 C 27.800781 -33.171875 26.914062 -33.769531 26.09375 -34.535156 C 24.710938 -35.832031 24.105469 -37.453125 24.285156 -39.398438 C 24.417969 -40.597656 24.804688 -41.65625 25.445312 -42.570312 C 26.109375 -43.519531 27 -44.246094 28.109375 -44.75 C 29.441406 -45.351562 30.777344 -45.742188 32.125 -45.917969 C 33.269531 -46.0625 34.820312 -46.167969 36.777344 -46.238281 C 38.667969 -46.304688 40.71875 -46.335938 42.933594 -46.335938 L 49.109375 -46.335938 C 51.085938 -46.335938 52.71875 -46.320312 54.015625 -46.285156 L 55.910156 -46.238281 L 55.816406 -42.59375 L 55.816406 -46.238281 C 55.183594 -46.238281 54.597656 -45.996094 54.050781 -45.511719 C 53.382812 -44.917969 53.046875 -44.203125 53.046875 -43.371094 L 56.691406 -43.371094 L 53.078125 -42.898438 L 52.929688 -44.015625 C 52.824219 -44.835938 52.734375 -45.753906 52.664062 -46.765625 C 52.59375 -47.789062 52.558594 -48.667969 52.558594 -49.398438 C 52.558594 -50.078125 52.578125 -51.066406 52.609375 -52.363281 C 52.644531 -53.664062 52.691406 -54.914062 52.761719 -56.117188 C 52.820312 -57.21875 52.851562 -57.894531 52.851562 -58.152344 L 52.851562 -58.378906 L 52.878906 -58.605469 C 52.933594 -59.046875 52.976562 -59.492188 53.003906 -59.933594 C 53.019531 -60.1875 53.03125 -60.378906 53.039062 -60.519531 C 53.042969 -60.578125 53.046875 -60.625 53.046875 -60.65625 C 53.046875 -60.664062 53.046875 -60.667969 53.046875 -60.667969 C 53.046875 -60.644531 53.046875 -60.613281 53.046875 -60.582031 L 56.691406 -60.582031 L 53.234375 -59.429688 C 53.410156 -58.902344 53.734375 -58.460938 54.214844 -58.101562 C 54.730469 -57.714844 55.300781 -57.519531 55.914062 -57.519531 L 4.085938 -57.519531 C 4.785156 -57.519531 5.371094 -57.78125 5.835938 -58.304688 C 6.351562 -58.882812 6.546875 -59.527344 6.425781 -60.242188 C 7.175781 -55.195312 7.398438 -50.113281 7.09375 -45 C 6.804688 -40.195312 6.628906 -35.425781 6.5625 -30.691406 L 6.417969 -15.972656 C 6.386719 -11.039062 6.269531 -6.117188 6.074219 -1.214844 L 6.074219 -1.160156 L 6.070312 -1.101562 C 6.082031 -1.273438 6.058594 -1.472656 6 -1.691406 C 5.890625 -2.109375 5.679688 -2.488281 5.371094 -2.820312 C 5.058594 -3.15625 4.699219 -3.394531 4.285156 -3.535156 C 4.066406 -3.609375 3.871094 -3.648438 3.695312 -3.648438 L 56.304688 -3.648438 C 55.554688 -3.648438 54.890625 -3.355469 54.308594 -2.773438 C 53.726562 -2.191406 53.433594 -1.527344 53.433594 -0.777344 L 57.082031 -0.777344 L 53.4375 -0.636719 L 53.390625 -1.902344 C 53.359375 -2.726562 53.308594 -3.726562 53.246094 -4.910156 C 53.179688 -6.136719 53.128906 -7.28125 53.097656 -8.347656 C 53.0625 -9.421875 53.046875 -10.238281 53.046875 -10.792969 Z M 53.046875 -16.140625 "/></g></g><g style="fill:#ffffff;fill-opacity:1;"><g transform="translate(95.347359, 225.071925)"><path style="stroke:none" d="M 56.703125 -16.140625 C 56.703125 -15.296875 56.703125 -14.367188 56.703125 -13.359375 C 56.703125 -12.359375 56.703125 -11.503906 56.703125 -10.796875 C 56.703125 -10.273438 56.71875 -9.492188 56.75 -8.453125 C 56.78125 -7.421875 56.828125 -6.304688 56.890625 -5.109375 C 56.953125 -3.910156 57 -2.890625 57.03125 -2.046875 C 57.0625 -1.203125 57.078125 -0.78125 57.078125 -0.78125 C 57.078125 -0.257812 56.820312 0 56.3125 0 L 3.703125 0 C 2.785156 0 2.363281 -0.453125 2.4375 -1.359375 C 2.625 -6.222656 2.734375 -11.101562 2.765625 -16 C 2.796875 -20.894531 2.847656 -25.804688 2.921875 -30.734375 C 2.984375 -35.523438 3.160156 -40.351562 3.453125 -45.21875 C 3.742188 -50.082031 3.53125 -54.914062 2.8125 -59.71875 C 2.75 -60.101562 2.847656 -60.441406 3.109375 -60.734375 C 3.367188 -61.023438 3.691406 -61.171875 4.078125 -61.171875 L 55.921875 -61.171875 C 56.304688 -61.171875 56.566406 -60.976562 56.703125 -60.59375 C 56.703125 -60.519531 56.679688 -60.222656 56.640625 -59.703125 C 56.609375 -59.191406 56.5625 -58.675781 56.5 -58.15625 C 56.5 -57.832031 56.46875 -57.085938 56.40625 -55.921875 C 56.34375 -54.753906 56.289062 -53.535156 56.25 -52.265625 C 56.21875 -51.003906 56.203125 -50.050781 56.203125 -49.40625 C 56.203125 -48.757812 56.234375 -47.960938 56.296875 -47.015625 C 56.367188 -46.078125 56.453125 -45.234375 56.546875 -44.484375 C 56.648438 -43.742188 56.703125 -43.375 56.703125 -43.375 C 56.703125 -42.851562 56.410156 -42.59375 55.828125 -42.59375 C 55.828125 -42.59375 55.191406 -42.609375 53.921875 -42.640625 C 52.660156 -42.671875 51.054688 -42.6875 49.109375 -42.6875 C 47.160156 -42.6875 45.097656 -42.6875 42.921875 -42.6875 C 40.753906 -42.6875 38.75 -42.65625 36.90625 -42.59375 C 35.0625 -42.53125 33.617188 -42.429688 32.578125 -42.296875 C 31.609375 -42.171875 30.617188 -41.878906 29.609375 -41.421875 C 28.609375 -40.972656 28.039062 -40.164062 27.90625 -39 C 27.84375 -38.28125 28.070312 -37.675781 28.59375 -37.1875 C 29.113281 -36.707031 29.664062 -36.335938 30.25 -36.078125 C 30.570312 -36.015625 31.59375 -35.945312 33.3125 -35.875 C 35.03125 -35.8125 37.085938 -35.78125 39.484375 -35.78125 C 41.878906 -35.78125 44.289062 -35.796875 46.71875 -35.828125 C 49.15625 -35.867188 51.21875 -35.890625 52.90625 -35.890625 C 54.59375 -35.890625 55.566406 -35.890625 55.828125 -35.890625 C 56.410156 -35.890625 56.703125 -35.628906 56.703125 -35.109375 L 56.703125 -27.03125 C 56.703125 -26.320312 56.703125 -25.707031 56.703125 -25.1875 C 56.703125 -24.664062 56.703125 -24.113281 56.703125 -23.53125 C 56.703125 -23.007812 56.410156 -22.75 55.828125 -22.75 C 54.722656 -22.75 53.179688 -22.765625 51.203125 -22.796875 C 49.222656 -22.835938 47.179688 -22.890625 45.078125 -22.953125 C 42.972656 -23.015625 41.078125 -23.0625 39.390625 -23.09375 C 37.703125 -23.125 36.566406 -23.140625 35.984375 -23.140625 C 35.335938 -23.078125 34.539062 -23.046875 33.59375 -23.046875 C 32.65625 -23.046875 31.765625 -22.914062 30.921875 -22.65625 C 30.078125 -22.394531 29.460938 -21.878906 29.078125 -21.109375 C 28.429688 -19.867188 28.53125 -18.84375 29.375 -18.03125 C 30.21875 -17.226562 31.15625 -16.695312 32.1875 -16.4375 C 32.832031 -16.300781 34.160156 -16.234375 36.171875 -16.234375 C 38.179688 -16.234375 40.46875 -16.28125 43.03125 -16.375 C 45.59375 -16.476562 48.054688 -16.578125 50.421875 -16.671875 C 52.785156 -16.773438 54.585938 -16.859375 55.828125 -16.921875 C 56.410156 -16.921875 56.703125 -16.660156 56.703125 -16.140625 Z M 56.703125 -16.140625 "/></g></g><g style="fill:#000000;fill-opacity:1;"><g transform="translate(55.998524, 224.922921)"><path style="stroke:none" d="M 60.632812 -28.589844 C 60.632812 -26.332031 60.511719 -23.976562 60.273438 -21.527344 C 60.019531 -18.917969 59.65625 -16.902344 59.179688 -15.476562 L 59.152344 -15.390625 L 58.097656 -12.679688 C 57.277344 -10.574219 56.035156 -8.496094 54.367188 -6.449219 L 54.300781 -6.367188 L 54.226562 -6.289062 C 53.355469 -5.335938 51.960938 -4.15625 50.054688 -2.75 C 48.105469 -1.316406 46.15625 -0.1875 44.207031 0.636719 C 41.886719 1.578125 39.621094 2.269531 37.414062 2.703125 C 35.203125 3.136719 33.589844 3.355469 32.578125 3.355469 L 32.578125 -0.292969 L 32.980469 3.332031 C 32.292969 3.410156 31.285156 3.464844 29.949219 3.5 C 28.6875 3.53125 27.421875 3.550781 26.160156 3.550781 L 23.4375 3.550781 L 23.4375 -0.0976562 L 23.519531 3.546875 L 21.429688 3.597656 C 20.074219 3.628906 18.410156 3.648438 16.433594 3.648438 L 3.792969 3.648438 C 2.386719 3.648438 1.246094 3.164062 0.375 2.195312 C -0.488281 1.234375 -0.851562 0.0585938 -0.710938 -1.335938 L -0.683594 -1.597656 L -0.621094 -1.855469 C -0.558594 -2.105469 -0.511719 -3.03125 -0.484375 -4.632812 C -0.453125 -6.492188 -0.4375 -8.628906 -0.4375 -11.039062 L -0.4375 -18.039062 C -0.4375 -20.214844 -0.46875 -21.921875 -0.53125 -23.15625 L -0.53125 -23.207031 L -0.535156 -23.253906 C -0.597656 -26.082031 -0.695312 -28.90625 -0.824219 -31.730469 C -0.953125 -34.609375 -1.050781 -37.492188 -1.117188 -40.371094 L -1.117188 -57.289062 L -0.917969 -60.609375 L 2.722656 -60.386719 L -0.925781 -60.386719 C -0.925781 -61.65625 -0.503906 -62.707031 0.339844 -63.550781 C 1.179688 -64.390625 2.234375 -64.8125 3.5 -64.8125 L 29.949219 -64.8125 L 29.949219 -57.519531 L 26.808594 -57.519531 L 26.808594 -64.8125 L 30.046875 -64.8125 C 34.003906 -64.8125 37.503906 -64.398438 40.542969 -63.566406 C 43.765625 -62.683594 47.035156 -60.878906 50.355469 -58.148438 L 48.039062 -55.332031 L 50.285156 -58.207031 C 52.789062 -56.246094 54.734375 -53.886719 56.113281 -51.128906 C 57.367188 -48.625 58.265625 -46.289062 58.816406 -44.125 C 59.324219 -42.128906 59.648438 -40.734375 59.792969 -39.9375 C 59.945312 -39.117188 60.089844 -37.941406 60.226562 -36.40625 C 60.363281 -34.925781 60.464844 -33.445312 60.53125 -31.964844 C 60.597656 -30.484375 60.632812 -29.359375 60.632812 -28.589844 Z M 53.339844 -28.589844 C 53.339844 -29.246094 53.308594 -30.261719 53.246094 -31.632812 C 53.183594 -33.003906 53.089844 -34.375 52.964844 -35.746094 C 52.84375 -37.066406 52.730469 -38.027344 52.617188 -38.632812 C 52.503906 -39.265625 52.214844 -40.496094 51.75 -42.328125 C 51.328125 -43.984375 50.609375 -45.832031 49.589844 -47.867188 C 48.699219 -49.644531 47.433594 -51.175781 45.792969 -52.457031 L 45.757812 -52.484375 L 45.722656 -52.515625 C 43.207031 -54.582031 40.835938 -55.921875 38.613281 -56.53125 C 36.207031 -57.191406 33.351562 -57.519531 30.046875 -57.519531 L 26.808594 -57.519531 C 26.324219 -57.519531 25.859375 -57.613281 25.410156 -57.796875 C 24.964844 -57.980469 24.570312 -58.246094 24.226562 -58.585938 C 23.886719 -58.929688 23.621094 -59.324219 23.4375 -59.769531 C 23.253906 -60.21875 23.160156 -60.683594 23.160156 -61.167969 C 23.160156 -61.648438 23.253906 -62.113281 23.4375 -62.5625 C 23.621094 -63.007812 23.886719 -63.402344 24.226562 -63.746094 C 24.570312 -64.085938 24.964844 -64.351562 25.410156 -64.535156 C 25.859375 -64.71875 26.324219 -64.8125 26.808594 -64.8125 L 29.949219 -64.8125 L 29.949219 -57.519531 L 3.5 -57.519531 C 4.25 -57.519531 4.914062 -57.8125 5.496094 -58.394531 C 6.078125 -58.976562 6.371094 -59.640625 6.371094 -60.386719 L 6.371094 -60.277344 L 6.167969 -56.957031 L 2.527344 -57.179688 L 6.175781 -57.179688 L 6.175781 -40.453125 L 2.527344 -40.453125 L 6.175781 -40.535156 C 6.238281 -37.710938 6.335938 -34.886719 6.464844 -32.0625 C 6.59375 -29.179688 6.691406 -26.300781 6.757812 -23.421875 L 3.113281 -23.339844 L 6.753906 -23.519531 C 6.820312 -22.164062 6.855469 -20.335938 6.855469 -18.039062 L 6.855469 -11.039062 C 6.855469 -8.585938 6.839844 -6.410156 6.808594 -4.507812 C 6.769531 -2.347656 6.652344 -0.875 6.457031 -0.0898438 L 2.917969 -0.972656 L 6.546875 -0.609375 C 6.621094 -1.355469 6.371094 -2.046875 5.796875 -2.683594 C 5.449219 -3.070312 5.039062 -3.34375 4.5625 -3.507812 C 4.292969 -3.601562 4.039062 -3.648438 3.792969 -3.648438 L 16.433594 -3.648438 C 18.347656 -3.648438 19.957031 -3.664062 21.261719 -3.695312 L 23.394531 -3.742188 L 26.160156 -3.742188 C 27.359375 -3.742188 28.558594 -3.761719 29.757812 -3.792969 C 30.886719 -3.820312 31.691406 -3.863281 32.175781 -3.917969 L 32.375 -3.9375 L 32.578125 -3.9375 C 33.117188 -3.9375 34.261719 -4.109375 36.003906 -4.453125 C 37.753906 -4.796875 39.539062 -5.339844 41.367188 -6.082031 C 42.789062 -6.683594 44.242188 -7.53125 45.730469 -8.625 C 47.257812 -9.75 48.296875 -10.613281 48.851562 -11.214844 L 51.539062 -8.75 L 48.710938 -11.054688 C 49.894531 -12.507812 50.757812 -13.933594 51.300781 -15.324219 L 52.320312 -17.949219 L 55.71875 -16.628906 L 52.261719 -17.78125 C 52.5625 -18.6875 52.8125 -20.171875 53.015625 -22.234375 C 53.230469 -24.449219 53.339844 -26.566406 53.339844 -28.589844 Z M 28.113281 -25.351562 C 28.210938 -25.878906 28.269531 -26.710938 28.296875 -27.851562 C 28.328125 -29.125 28.328125 -30.425781 28.296875 -31.761719 C 28.269531 -33.082031 28.222656 -34.097656 28.164062 -34.800781 L 31.796875 -35.105469 L 28.175781 -34.691406 C 28.070312 -35.601562 27.9375 -36.316406 27.777344 -36.839844 C 27.726562 -37.007812 27.679688 -37.128906 27.640625 -37.210938 C 27.664062 -37.164062 27.714844 -37.101562 27.796875 -37.015625 C 27.742188 -37.070312 27.699219 -37.109375 27.664062 -37.140625 C 27.671875 -37.132812 27.691406 -37.121094 27.726562 -37.101562 C 27.964844 -36.96875 28.253906 -36.902344 28.589844 -36.902344 C 28.949219 -36.902344 29.304688 -37.003906 29.660156 -37.210938 C 30.050781 -37.4375 30.34375 -37.734375 30.542969 -38.105469 C 30.613281 -38.238281 30.664062 -38.351562 30.6875 -38.445312 C 30.675781 -38.40625 30.664062 -38.335938 30.652344 -38.230469 C 30.605469 -37.875 30.582031 -37.382812 30.582031 -36.757812 L 30.582031 -24.796875 C 30.582031 -23.851562 30.644531 -23.054688 30.765625 -22.398438 C 30.691406 -22.792969 30.460938 -23.160156 30.074219 -23.5 C 29.636719 -23.878906 29.175781 -24.066406 28.6875 -24.066406 C 28.59375 -24.066406 28.460938 -24.027344 28.289062 -23.945312 C 27.976562 -23.796875 27.730469 -23.578125 27.546875 -23.292969 C 27.695312 -23.527344 27.890625 -24.234375 28.125 -25.414062 Z M 35.277344 -23.984375 C 34.863281 -21.921875 34.34375 -20.394531 33.714844 -19.398438 C 33.144531 -18.492188 32.378906 -17.8125 31.417969 -17.359375 C 30.597656 -16.96875 29.6875 -16.773438 28.6875 -16.773438 C 27.355469 -16.773438 26.21875 -17.183594 25.28125 -18 C 24.390625 -18.773438 23.828125 -19.796875 23.59375 -21.070312 C 23.390625 -22.164062 23.289062 -23.40625 23.289062 -24.796875 L 23.289062 -36.757812 C 23.289062 -38.921875 23.5625 -40.515625 24.109375 -41.539062 C 24.566406 -42.394531 25.199219 -43.058594 26.011719 -43.527344 C 26.789062 -43.972656 27.648438 -44.199219 28.589844 -44.199219 C 30.214844 -44.199219 31.710938 -43.480469 33.078125 -42.042969 C 34.289062 -40.773438 35.070312 -38.597656 35.421875 -35.519531 L 35.429688 -35.464844 L 35.433594 -35.40625 C 35.503906 -34.558594 35.554688 -33.398438 35.589844 -31.933594 C 35.625 -30.480469 35.625 -29.0625 35.589844 -27.675781 C 35.554688 -26.15625 35.453125 -24.945312 35.289062 -24.046875 Z M 35.277344 -23.984375 "/></g></g><g style="fill:#ffffff;fill-opacity:1;"><g transform="translate(55.998524, 224.922921)"><path style="stroke:none" d="M 56.984375 -28.59375 C 56.984375 -26.445312 56.867188 -24.207031 56.640625 -21.875 C 56.421875 -19.539062 56.113281 -17.789062 55.71875 -16.625 C 55.71875 -16.625 55.378906 -15.75 54.703125 -14 C 54.023438 -12.25 52.972656 -10.5 51.546875 -8.75 C 50.828125 -7.96875 49.609375 -6.945312 47.890625 -5.6875 C 46.171875 -4.425781 44.472656 -3.4375 42.796875 -2.71875 C 40.710938 -1.875 38.679688 -1.257812 36.703125 -0.875 C 34.734375 -0.488281 33.359375 -0.296875 32.578125 -0.296875 C 31.992188 -0.222656 31.085938 -0.171875 29.859375 -0.140625 C 28.628906 -0.109375 27.394531 -0.09375 26.15625 -0.09375 C 24.925781 -0.09375 24.019531 -0.09375 23.4375 -0.09375 C 23.375 -0.09375 22.675781 -0.078125 21.34375 -0.046875 C 20.019531 -0.015625 18.382812 0 16.4375 0 C 14.488281 0 12.539062 0 10.59375 0 C 8.65625 0 7.035156 0 5.734375 0 C 4.441406 0 3.796875 0 3.796875 0 C 3.140625 0 2.847656 -0.320312 2.921875 -0.96875 C 3.046875 -1.488281 3.125 -2.6875 3.15625 -4.5625 C 3.1875 -6.445312 3.203125 -8.601562 3.203125 -11.03125 C 3.203125 -13.46875 3.203125 -15.800781 3.203125 -18.03125 C 3.203125 -20.269531 3.171875 -22.039062 3.109375 -23.34375 C 3.046875 -26.195312 2.945312 -29.046875 2.8125 -31.890625 C 2.6875 -34.742188 2.59375 -37.597656 2.53125 -40.453125 L 2.53125 -57.1875 C 2.59375 -58.21875 2.65625 -59.285156 2.71875 -60.390625 C 2.71875 -60.910156 2.976562 -61.171875 3.5 -61.171875 L 29.953125 -61.171875 C 29.953125 -61.171875 29.644531 -61.171875 29.03125 -61.171875 C 28.414062 -61.171875 27.847656 -61.171875 27.328125 -61.171875 C 26.804688 -61.171875 26.675781 -61.171875 26.9375 -61.171875 C 27.195312 -61.171875 28.234375 -61.171875 30.046875 -61.171875 C 33.679688 -61.171875 36.859375 -60.796875 39.578125 -60.046875 C 42.304688 -59.304688 45.128906 -57.734375 48.046875 -55.328125 C 50.117188 -53.710938 51.722656 -51.769531 52.859375 -49.5 C 53.992188 -47.226562 54.800781 -45.132812 55.28125 -43.21875 C 55.769531 -41.3125 56.078125 -40 56.203125 -39.28125 C 56.335938 -38.570312 56.46875 -37.503906 56.59375 -36.078125 C 56.726562 -34.648438 56.828125 -33.222656 56.890625 -31.796875 C 56.953125 -30.367188 56.984375 -29.300781 56.984375 -28.59375 Z M 31.703125 -24.703125 C 31.828125 -25.410156 31.90625 -26.429688 31.9375 -27.765625 C 31.976562 -29.097656 31.976562 -30.457031 31.9375 -31.84375 C 31.90625 -33.238281 31.859375 -34.328125 31.796875 -35.109375 C 31.535156 -37.378906 31.082031 -38.851562 30.4375 -39.53125 C 29.789062 -40.207031 29.175781 -40.546875 28.59375 -40.546875 C 28.007812 -40.546875 27.585938 -40.300781 27.328125 -39.8125 C 27.066406 -39.332031 26.9375 -38.316406 26.9375 -36.765625 L 26.9375 -24.796875 C 26.9375 -23.628906 27.015625 -22.609375 27.171875 -21.734375 C 27.335938 -20.859375 27.84375 -20.421875 28.6875 -20.421875 C 29.59375 -20.421875 30.238281 -20.726562 30.625 -21.34375 C 31.019531 -21.957031 31.378906 -23.078125 31.703125 -24.703125 Z M 31.703125 -24.703125 "/></g></g><g style="fill:#222222;fill-opacity:1;"><g transform="translate(130.909157, 237.850501)"><path style="stroke:none" d="M 3.441406 -6.824219 C 3.941406 -6.824219 4.375 -6.730469 4.738281 -6.542969 C 5.105469 -6.355469 5.382812 -6.085938 5.574219 -5.742188 C 5.761719 -5.40625 5.851562 -5.011719 5.851562 -4.570312 C 5.851562 -4.125 5.761719 -3.734375 5.574219 -3.398438 C 5.382812 -3.054688 5.105469 -2.789062 4.738281 -2.597656 C 4.375 -2.414062 3.941406 -2.320312 3.441406 -2.320312 L 2.183594 -2.320312 L 2.183594 -2.484375 L 2.34375 -2.484375 L 2.34375 0.164062 L 0.703125 0.164062 L 0.703125 -6.824219 Z M 3.441406 -6.496094 L 0.867188 -6.496094 L 0.867188 -6.660156 L 1.027344 -6.660156 L 1.027344 0 L 0.867188 0 L 0.867188 -0.164062 L 2.183594 -0.164062 L 2.183594 0 L 2.019531 0 L 2.019531 -2.644531 L 3.441406 -2.644531 C 3.890625 -2.644531 4.273438 -2.726562 4.585938 -2.890625 C 4.898438 -3.050781 5.128906 -3.269531 5.289062 -3.554688 C 5.445312 -3.84375 5.527344 -4.179688 5.527344 -4.570312 C 5.527344 -4.957031 5.445312 -5.296875 5.289062 -5.585938 C 5.128906 -5.871094 4.898438 -6.09375 4.585938 -6.253906 C 4.273438 -6.414062 3.890625 -6.496094 3.441406 -6.496094 Z M 3.265625 -3.6875 C 3.589844 -3.6875 3.824219 -3.761719 3.976562 -3.90625 C 4.125 -4.046875 4.199219 -4.269531 4.199219 -4.570312 C 4.199219 -4.871094 4.125 -5.09375 3.976562 -5.238281 C 3.824219 -5.382812 3.589844 -5.453125 3.265625 -5.453125 L 2.183594 -5.453125 L 2.183594 -5.617188 L 2.34375 -5.617188 L 2.34375 -3.527344 L 2.183594 -3.527344 L 2.183594 -3.6875 Z M 3.265625 -3.363281 L 2.019531 -3.363281 L 2.019531 -5.78125 L 3.265625 -5.78125 C 3.675781 -5.78125 3.988281 -5.679688 4.203125 -5.472656 C 4.417969 -5.265625 4.527344 -4.964844 4.527344 -4.570312 C 4.527344 -4.175781 4.417969 -3.875 4.203125 -3.667969 C 3.988281 -3.464844 3.675781 -3.363281 3.265625 -3.363281 Z M 3.265625 -3.363281 "/></g></g><g style="fill:#222222;fill-opacity:1;"><g transform="translate(144.46165, 237.850501)"><path style="stroke:none" d="M 3.632812 0.257812 C 2.992188 0.257812 2.429688 0.128906 1.9375 -0.132812 C 1.441406 -0.398438 1.054688 -0.800781 0.773438 -1.34375 C 0.5 -1.878906 0.359375 -2.542969 0.359375 -3.332031 C 0.359375 -4.117188 0.5 -4.78125 0.773438 -5.316406 C 1.054688 -5.859375 1.441406 -6.261719 1.9375 -6.527344 C 2.429688 -6.789062 2.992188 -6.917969 3.632812 -6.917969 C 4.269531 -6.917969 4.832031 -6.789062 5.320312 -6.527344 C 5.816406 -6.265625 6.203125 -5.863281 6.480469 -5.316406 C 6.753906 -4.78125 6.890625 -4.117188 6.890625 -3.332031 C 6.890625 -2.542969 6.753906 -1.878906 6.480469 -1.34375 C 6.203125 -0.796875 5.816406 -0.394531 5.320312 -0.132812 C 4.832031 0.128906 4.269531 0.257812 3.632812 0.257812 Z M 3.632812 -0.0664062 C 4.214844 -0.0664062 4.726562 -0.183594 5.167969 -0.417969 C 5.601562 -0.652344 5.941406 -1.007812 6.1875 -1.492188 C 6.441406 -1.980469 6.566406 -2.59375 6.566406 -3.332031 C 6.566406 -4.066406 6.441406 -4.679688 6.1875 -5.167969 C 5.941406 -5.652344 5.601562 -6.007812 5.167969 -6.242188 C 4.726562 -6.476562 4.214844 -6.59375 3.632812 -6.59375 C 3.046875 -6.59375 2.535156 -6.472656 2.09375 -6.238281 C 1.65625 -6.003906 1.3125 -5.648438 1.066406 -5.167969 C 0.8125 -4.679688 0.6875 -4.066406 0.6875 -3.332031 C 0.6875 -2.59375 0.8125 -1.980469 1.066406 -1.492188 C 1.3125 -1.011719 1.65625 -0.65625 2.09375 -0.421875 C 2.535156 -0.1875 3.046875 -0.0664062 3.632812 -0.0664062 Z M 3.632812 -1.210938 C 4.144531 -1.210938 4.535156 -1.371094 4.796875 -1.695312 C 5.070312 -2.027344 5.207031 -2.574219 5.207031 -3.332031 C 5.207031 -4.085938 5.070312 -4.632812 4.796875 -4.96875 C 4.53125 -5.292969 4.144531 -5.453125 3.632812 -5.453125 C 3.113281 -5.453125 2.722656 -5.292969 2.457031 -4.96875 C 2.183594 -4.632812 2.042969 -4.085938 2.042969 -3.332031 C 2.042969 -2.574219 2.183594 -2.027344 2.457031 -1.695312 C 2.722656 -1.371094 3.113281 -1.210938 3.632812 -1.210938 Z M 3.632812 -0.882812 C 3.011719 -0.882812 2.535156 -1.085938 2.203125 -1.488281 C 1.878906 -1.882812 1.71875 -2.496094 1.71875 -3.332031 C 1.71875 -4.164062 1.878906 -4.78125 2.203125 -5.175781 C 2.535156 -5.578125 3.011719 -5.78125 3.632812 -5.78125 C 4.246094 -5.78125 4.722656 -5.578125 5.050781 -5.171875 C 5.375 -4.777344 5.535156 -4.164062 5.535156 -3.332031 C 5.535156 -2.496094 5.375 -1.882812 5.050781 -1.488281 C 4.71875 -1.085938 4.246094 -0.882812 3.632812 -0.882812 Z M 3.632812 -0.882812 "/></g></g><g style="fill:#222222;fill-opacity:1;"><g transform="translate(159.184714, 237.850501)"><path style="stroke:none" d="M 0.703125 0 L 0.703125 -6.824219 L 3.539062 -6.824219 C 4.269531 -6.824219 4.828125 -6.652344 5.210938 -6.304688 C 5.597656 -5.957031 5.789062 -5.476562 5.789062 -4.871094 C 5.789062 -4.429688 5.675781 -4.0625 5.445312 -3.773438 C 5.222656 -3.492188 4.890625 -3.277344 4.453125 -3.128906 L 4.402344 -3.285156 L 4.5625 -3.285156 L 4.5625 -3.1875 L 4.402344 -3.1875 L 4.464844 -3.339844 C 4.703125 -3.234375 4.894531 -3.082031 5.042969 -2.878906 C 5.179688 -2.6875 5.308594 -2.40625 5.429688 -2.039062 L 6.167969 0.164062 L 4.46875 0.164062 L 3.78125 -1.941406 C 3.71875 -2.121094 3.652344 -2.261719 3.582031 -2.359375 C 3.515625 -2.445312 3.433594 -2.507812 3.332031 -2.546875 C 3.222656 -2.589844 3.074219 -2.609375 2.886719 -2.609375 L 2.183594 -2.609375 L 2.183594 -2.773438 L 2.34375 -2.773438 L 2.34375 0.164062 L 0.703125 0.164062 Z M 1.027344 0 L 0.867188 0 L 0.867188 -0.164062 L 2.183594 -0.164062 L 2.183594 0 L 2.019531 0 L 2.019531 -2.9375 L 2.886719 -2.9375 C 3.113281 -2.9375 3.300781 -2.910156 3.449219 -2.851562 C 3.609375 -2.789062 3.738281 -2.691406 3.839844 -2.554688 C 3.933594 -2.429688 4.019531 -2.257812 4.089844 -2.042969 L 4.742188 -0.0507812 L 4.585938 0 L 4.585938 -0.164062 L 5.941406 -0.164062 L 5.941406 0 L 5.785156 0.0507812 L 5.121094 -1.933594 C 5.011719 -2.273438 4.894531 -2.523438 4.777344 -2.6875 C 4.664062 -2.84375 4.519531 -2.960938 4.335938 -3.039062 L 4.238281 -3.082031 L 4.238281 -3.402344 L 4.347656 -3.441406 C 4.726562 -3.566406 5.007812 -3.746094 5.191406 -3.976562 C 5.371094 -4.207031 5.464844 -4.503906 5.464844 -4.871094 C 5.464844 -5.378906 5.304688 -5.777344 4.992188 -6.0625 C 4.671875 -6.351562 4.1875 -6.496094 3.539062 -6.496094 L 0.867188 -6.496094 L 0.867188 -6.660156 L 1.027344 -6.660156 Z M 3.378906 -3.980469 C 3.65625 -3.980469 3.859375 -4.039062 3.988281 -4.160156 C 4.109375 -4.277344 4.171875 -4.460938 4.171875 -4.710938 C 4.171875 -4.964844 4.109375 -5.152344 3.984375 -5.273438 C 3.859375 -5.394531 3.65625 -5.453125 3.378906 -5.453125 L 2.183594 -5.453125 L 2.183594 -5.617188 L 2.34375 -5.617188 L 2.34375 -3.816406 L 2.183594 -3.816406 L 2.183594 -3.980469 Z M 3.378906 -3.65625 L 2.019531 -3.65625 L 2.019531 -5.78125 L 3.378906 -5.78125 C 3.742188 -5.78125 4.019531 -5.691406 4.210938 -5.507812 C 4.402344 -5.324219 4.5 -5.058594 4.5 -4.710938 C 4.5 -4.367188 4.402344 -4.101562 4.210938 -3.921875 C 4.019531 -3.742188 3.742188 -3.65625 3.378906 -3.65625 Z M 3.378906 -3.65625 "/></g></g><g style="fill:#222222;fill-opacity:1;"><g transform="translate(172.878404, 237.850501)"><path style="stroke:none" d="M 5.503906 -6.660156 L 5.503906 -5.390625 L 3.417969 -5.390625 L 3.417969 -5.554688 L 3.582031 -5.554688 L 3.582031 0.164062 L 1.941406 0.164062 L 1.941406 -5.554688 L 2.105469 -5.554688 L 2.105469 -5.390625 L 0.0195312 -5.390625 L 0.0195312 -6.824219 L 5.503906 -6.824219 Z M 5.175781 -6.660156 L 5.339844 -6.660156 L 5.339844 -6.496094 L 0.183594 -6.496094 L 0.183594 -6.660156 L 0.34375 -6.660156 L 0.34375 -5.554688 L 0.183594 -5.554688 L 0.183594 -5.714844 L 2.269531 -5.714844 L 2.269531 0 L 2.105469 0 L 2.105469 -0.164062 L 3.417969 -0.164062 L 3.417969 0 L 3.253906 0 L 3.253906 -5.714844 L 5.339844 -5.714844 L 5.339844 -5.554688 L 5.175781 -5.554688 Z M 5.175781 -6.660156 "/></g></g><g style="fill:#222222;fill-opacity:1;"><g transform="translate(185.866108, 237.850501)"><path style="stroke:none" d="M 5.253906 -6.660156 L 5.253906 -5.394531 L 2.183594 -5.394531 L 2.183594 -5.558594 L 2.34375 -5.558594 L 2.34375 -3.792969 L 2.183594 -3.792969 L 2.183594 -3.957031 L 4.984375 -3.957031 L 4.984375 -2.542969 L 2.183594 -2.542969 L 2.183594 -2.707031 L 2.34375 -2.707031 L 2.34375 0.164062 L 0.703125 0.164062 L 0.703125 -6.824219 L 5.253906 -6.824219 Z M 4.925781 -6.660156 L 5.089844 -6.660156 L 5.089844 -6.496094 L 0.867188 -6.496094 L 0.867188 -6.660156 L 1.027344 -6.660156 L 1.027344 0 L 0.867188 0 L 0.867188 -0.164062 L 2.183594 -0.164062 L 2.183594 0 L 2.019531 0 L 2.019531 -2.871094 L 4.820312 -2.871094 L 4.820312 -2.707031 L 4.65625 -2.707031 L 4.65625 -3.792969 L 4.820312 -3.792969 L 4.820312 -3.632812 L 2.019531 -3.632812 L 2.019531 -5.722656 L 5.089844 -5.722656 L 5.089844 -5.558594 L 4.925781 -5.558594 Z M 4.925781 -6.660156 "/></g></g><g style="fill:#222222;fill-opacity:1;"><g transform="translate(198.71717, 237.850501)"><path style="stroke:none" d="M 3.632812 0.257812 C 2.992188 0.257812 2.429688 0.128906 1.9375 -0.132812 C 1.441406 -0.398438 1.054688 -0.800781 0.773438 -1.34375 C 0.5 -1.878906 0.359375 -2.542969 0.359375 -3.332031 C 0.359375 -4.117188 0.5 -4.78125 0.773438 -5.316406 C 1.054688 -5.859375 1.441406 -6.261719 1.9375 -6.527344 C 2.429688 -6.789062 2.992188 -6.917969 3.632812 -6.917969 C 4.269531 -6.917969 4.832031 -6.789062 5.320312 -6.527344 C 5.816406 -6.265625 6.203125 -5.863281 6.480469 -5.316406 C 6.753906 -4.78125 6.890625 -4.117188 6.890625 -3.332031 C 6.890625 -2.542969 6.753906 -1.878906 6.480469 -1.34375 C 6.203125 -0.796875 5.816406 -0.394531 5.320312 -0.132812 C 4.832031 0.128906 4.269531 0.257812 3.632812 0.257812 Z M 3.632812 -0.0664062 C 4.214844 -0.0664062 4.726562 -0.183594 5.167969 -0.417969 C 5.601562 -0.652344 5.941406 -1.007812 6.1875 -1.492188 C 6.441406 -1.980469 6.566406 -2.59375 6.566406 -3.332031 C 6.566406 -4.066406 6.441406 -4.679688 6.1875 -5.167969 C 5.941406 -5.652344 5.601562 -6.007812 5.167969 -6.242188 C 4.726562 -6.476562 4.214844 -6.59375 3.632812 -6.59375 C 3.046875 -6.59375 2.535156 -6.472656 2.09375 -6.238281 C 1.65625 -6.003906 1.3125 -5.648438 1.066406 -5.167969 C 0.8125 -4.679688 0.6875 -4.066406 0.6875 -3.332031 C 0.6875 -2.59375 0.8125 -1.980469 1.066406 -1.492188 C 1.3125 -1.011719 1.65625 -0.65625 2.09375 -0.421875 C 2.535156 -0.1875 3.046875 -0.0664062 3.632812 -0.0664062 Z M 3.632812 -1.210938 C 4.144531 -1.210938 4.535156 -1.371094 4.796875 -1.695312 C 5.070312 -2.027344 5.207031 -2.574219 5.207031 -3.332031 C 5.207031 -4.085938 5.070312 -4.632812 4.796875 -4.96875 C 4.53125 -5.292969 4.144531 -5.453125 3.632812 -5.453125 C 3.113281 -5.453125 2.722656 -5.292969 2.457031 -4.96875 C 2.183594 -4.632812 2.042969 -4.085938 2.042969 -3.332031 C 2.042969 -2.574219 2.183594 -2.027344 2.457031 -1.695312 C 2.722656 -1.371094 3.113281 -1.210938 3.632812 -1.210938 Z M 3.632812 -0.882812 C 3.011719 -0.882812 2.535156 -1.085938 2.203125 -1.488281 C 1.878906 -1.882812 1.71875 -2.496094 1.71875 -3.332031 C 1.71875 -4.164062 1.878906 -4.78125 2.203125 -5.175781 C 2.535156 -5.578125 3.011719 -5.78125 3.632812 -5.78125 C 4.246094 -5.78125 4.722656 -5.578125 5.050781 -5.171875 C 5.375 -4.777344 5.535156 -4.164062 5.535156 -3.332031 C 5.535156 -2.496094 5.375 -1.882812 5.050781 -1.488281 C 4.71875 -1.085938 4.246094 -0.882812 3.632812 -0.882812 Z M 3.632812 -0.882812 "/></g></g><g style="fill:#222222;fill-opacity:1;"><g transform="translate(213.440234, 237.850501)"><path style="stroke:none" d="M 2.34375 -6.660156 L 2.34375 -1.101562 L 2.183594 -1.101562 L 2.183594 -1.265625 L 5.339844 -1.265625 L 5.339844 0.164062 L 0.703125 0.164062 L 0.703125 -6.824219 L 2.34375 -6.824219 Z M 2.019531 -6.660156 L 2.183594 -6.660156 L 2.183594 -6.496094 L 0.867188 -6.496094 L 0.867188 -6.660156 L 1.027344 -6.660156 L 1.027344 0 L 0.867188 0 L 0.867188 -0.164062 L 5.175781 -0.164062 L 5.175781 0 L 5.011719 0 L 5.011719 -1.101562 L 5.175781 -1.101562 L 5.175781 -0.9375 L 2.019531 -0.9375 Z M 2.019531 -6.660156 "/></g></g><g style="fill:#222222;fill-opacity:1;"><g transform="translate(226.300405, 237.850501)"><path style="stroke:none" d="M 0.703125 -6.824219 L 2.34375 -6.824219 L 2.34375 0.164062 L 0.703125 0.164062 Z M 1.027344 -6.496094 L 1.027344 -0.164062 L 2.019531 -0.164062 L 2.019531 -6.496094 Z M 1.027344 -6.496094 "/></g></g><g style="fill:#222222;fill-opacity:1;"><g transform="translate(236.819436, 237.850501)"><path style="stroke:none" d="M 3.632812 0.257812 C 2.992188 0.257812 2.429688 0.128906 1.9375 -0.132812 C 1.441406 -0.398438 1.054688 -0.800781 0.773438 -1.34375 C 0.5 -1.878906 0.359375 -2.542969 0.359375 -3.332031 C 0.359375 -4.117188 0.5 -4.78125 0.773438 -5.316406 C 1.054688 -5.859375 1.441406 -6.261719 1.9375 -6.527344 C 2.429688 -6.789062 2.992188 -6.917969 3.632812 -6.917969 C 4.269531 -6.917969 4.832031 -6.789062 5.320312 -6.527344 C 5.816406 -6.265625 6.203125 -5.863281 6.480469 -5.316406 C 6.753906 -4.78125 6.890625 -4.117188 6.890625 -3.332031 C 6.890625 -2.542969 6.753906 -1.878906 6.480469 -1.34375 C 6.203125 -0.796875 5.816406 -0.394531 5.320312 -0.132812 C 4.832031 0.128906 4.269531 0.257812 3.632812 0.257812 Z M 3.632812 -0.0664062 C 4.214844 -0.0664062 4.726562 -0.183594 5.167969 -0.417969 C 5.601562 -0.652344 5.941406 -1.007812 6.1875 -1.492188 C 6.441406 -1.980469 6.566406 -2.59375 6.566406 -3.332031 C 6.566406 -4.066406 6.441406 -4.679688 6.1875 -5.167969 C 5.941406 -5.652344 5.601562 -6.007812 5.167969 -6.242188 C 4.726562 -6.476562 4.214844 -6.59375 3.632812 -6.59375 C 3.046875 -6.59375 2.535156 -6.472656 2.09375 -6.238281 C 1.65625 -6.003906 1.3125 -5.648438 1.066406 -5.167969 C 0.8125 -4.679688 0.6875 -4.066406 0.6875 -3.332031 C 0.6875 -2.59375 0.8125 -1.980469 1.066406 -1.492188 C 1.3125 -1.011719 1.65625 -0.65625 2.09375 -0.421875 C 2.535156 -0.1875 3.046875 -0.0664062 3.632812 -0.0664062 Z M 3.632812 -1.210938 C 4.144531 -1.210938 4.535156 -1.371094 4.796875 -1.695312 C 5.070312 -2.027344 5.207031 -2.574219 5.207031 -3.332031 C 5.207031 -4.085938 5.070312 -4.632812 4.796875 -4.96875 C 4.53125 -5.292969 4.144531 -5.453125 3.632812 -5.453125 C 3.113281 -5.453125 2.722656 -5.292969 2.457031 -4.96875 C 2.183594 -4.632812 2.042969 -4.085938 2.042969 -3.332031 C 2.042969 -2.574219 2.183594 -2.027344 2.457031 -1.695312 C 2.722656 -1.371094 3.113281 -1.210938 3.632812 -1.210938 Z M 3.632812 -0.882812 C 3.011719 -0.882812 2.535156 -1.085938 2.203125 -1.488281 C 1.878906 -1.882812 1.71875 -2.496094 1.71875 -3.332031 C 1.71875 -4.164062 1.878906 -4.78125 2.203125 -5.175781 C 2.535156 -5.578125 3.011719 -5.78125 3.632812 -5.78125 C 4.246094 -5.78125 4.722656 -5.578125 5.050781 -5.171875 C 5.375 -4.777344 5.535156 -4.164062 5.535156 -3.332031 C 5.535156 -2.496094 5.375 -1.882812 5.050781 -1.488281 C 4.71875 -1.085938 4.246094 -0.882812 3.632812 -0.882812 Z M 3.632812 -0.882812 "/></g></g><g style="fill:#ffffff;fill-opacity:1;"><g transform="translate(130.909157, 237.850501)"><path style="stroke:none" d="M 3.4375 -6.65625 C 3.914062 -6.65625 4.320312 -6.566406 4.65625 -6.390625 C 5 -6.222656 5.253906 -5.976562 5.421875 -5.65625 C 5.597656 -5.34375 5.6875 -4.976562 5.6875 -4.5625 C 5.6875 -4.144531 5.597656 -3.78125 5.421875 -3.46875 C 5.253906 -3.15625 5 -2.910156 4.65625 -2.734375 C 4.320312 -2.566406 3.914062 -2.484375 3.4375 -2.484375 L 2.1875 -2.484375 L 2.1875 0 L 0.859375 0 L 0.859375 -6.65625 Z M 3.265625 -3.53125 C 3.992188 -3.53125 4.359375 -3.875 4.359375 -4.5625 C 4.359375 -5.257812 3.992188 -5.609375 3.265625 -5.609375 L 2.1875 -5.609375 L 2.1875 -3.53125 Z M 3.265625 -3.53125 "/></g></g><g style="fill:#ffffff;fill-opacity:1;"><g transform="translate(144.46165, 237.850501)"><path style="stroke:none" d="M 3.625 0.09375 C 3.019531 0.09375 2.484375 -0.03125 2.015625 -0.28125 C 1.546875 -0.53125 1.179688 -0.910156 0.921875 -1.421875 C 0.660156 -1.929688 0.53125 -2.566406 0.53125 -3.328125 C 0.53125 -4.085938 0.660156 -4.722656 0.921875 -5.234375 C 1.179688 -5.742188 1.546875 -6.125 2.015625 -6.375 C 2.484375 -6.625 3.019531 -6.75 3.625 -6.75 C 4.238281 -6.75 4.773438 -6.625 5.234375 -6.375 C 5.703125 -6.132812 6.066406 -5.753906 6.328125 -5.234375 C 6.597656 -4.722656 6.734375 -4.085938 6.734375 -3.328125 C 6.734375 -2.566406 6.597656 -1.925781 6.328125 -1.40625 C 6.066406 -0.894531 5.703125 -0.515625 5.234375 -0.265625 C 4.773438 -0.0234375 4.238281 0.09375 3.625 0.09375 Z M 3.625 -1.046875 C 4.195312 -1.046875 4.628906 -1.226562 4.921875 -1.59375 C 5.222656 -1.957031 5.375 -2.535156 5.375 -3.328125 C 5.375 -4.117188 5.222656 -4.695312 4.921875 -5.0625 C 4.628906 -5.425781 4.195312 -5.609375 3.625 -5.609375 C 3.0625 -5.609375 2.628906 -5.425781 2.328125 -5.0625 C 2.023438 -4.695312 1.875 -4.117188 1.875 -3.328125 C 1.875 -2.535156 2.023438 -1.957031 2.328125 -1.59375 C 2.628906 -1.226562 3.0625 -1.046875 3.625 -1.046875 Z M 3.625 -1.046875 "/></g></g><g style="fill:#ffffff;fill-opacity:1;"><g transform="translate(159.184714, 237.850501)"><path style="stroke:none" d="M 0.859375 0 L 0.859375 -6.65625 L 3.53125 -6.65625 C 4.226562 -6.65625 4.75 -6.492188 5.09375 -6.171875 C 5.445312 -5.859375 5.625 -5.425781 5.625 -4.875 C 5.625 -4.46875 5.519531 -4.132812 5.3125 -3.875 C 5.113281 -3.613281 4.8125 -3.414062 4.40625 -3.28125 L 4.40625 -3.1875 C 4.613281 -3.09375 4.78125 -2.957031 4.90625 -2.78125 C 5.03125 -2.601562 5.15625 -2.335938 5.28125 -1.984375 L 5.9375 0 L 4.59375 0 L 3.9375 -1.984375 C 3.863281 -2.191406 3.785156 -2.347656 3.703125 -2.453125 C 3.617188 -2.566406 3.515625 -2.648438 3.390625 -2.703125 C 3.265625 -2.753906 3.097656 -2.78125 2.890625 -2.78125 L 2.1875 -2.78125 L 2.1875 0 Z M 3.375 -3.8125 C 4.019531 -3.8125 4.34375 -4.109375 4.34375 -4.703125 C 4.34375 -5.304688 4.019531 -5.609375 3.375 -5.609375 L 2.1875 -5.609375 L 2.1875 -3.8125 Z M 3.375 -3.8125 "/></g></g><g style="fill:#ffffff;fill-opacity:1;"><g transform="translate(172.878404, 237.850501)"><path style="stroke:none" d="M 5.34375 -6.65625 L 5.34375 -5.546875 L 3.421875 -5.546875 L 3.421875 0 L 2.109375 0 L 2.109375 -5.546875 L 0.1875 -5.546875 L 0.1875 -6.65625 Z M 5.34375 -6.65625 "/></g></g><g style="fill:#ffffff;fill-opacity:1;"><g transform="translate(185.866108, 237.850501)"><path style="stroke:none" d="M 5.09375 -6.65625 L 5.09375 -5.5625 L 2.1875 -5.5625 L 2.1875 -3.796875 L 4.8125 -3.796875 L 4.8125 -2.703125 L 2.1875 -2.703125 L 2.1875 0 L 0.859375 0 L 0.859375 -6.65625 Z M 5.09375 -6.65625 "/></g></g><g style="fill:#ffffff;fill-opacity:1;"><g transform="translate(198.71717, 237.850501)"><path style="stroke:none" d="M 3.625 0.09375 C 3.019531 0.09375 2.484375 -0.03125 2.015625 -0.28125 C 1.546875 -0.53125 1.179688 -0.910156 0.921875 -1.421875 C 0.660156 -1.929688 0.53125 -2.566406 0.53125 -3.328125 C 0.53125 -4.085938 0.660156 -4.722656 0.921875 -5.234375 C 1.179688 -5.742188 1.546875 -6.125 2.015625 -6.375 C 2.484375 -6.625 3.019531 -6.75 3.625 -6.75 C 4.238281 -6.75 4.773438 -6.625 5.234375 -6.375 C 5.703125 -6.132812 6.066406 -5.753906 6.328125 -5.234375 C 6.597656 -4.722656 6.734375 -4.085938 6.734375 -3.328125 C 6.734375 -2.566406 6.597656 -1.925781 6.328125 -1.40625 C 6.066406 -0.894531 5.703125 -0.515625 5.234375 -0.265625 C 4.773438 -0.0234375 4.238281 0.09375 3.625 0.09375 Z M 3.625 -1.046875 C 4.195312 -1.046875 4.628906 -1.226562 4.921875 -1.59375 C 5.222656 -1.957031 5.375 -2.535156 5.375 -3.328125 C 5.375 -4.117188 5.222656 -4.695312 4.921875 -5.0625 C 4.628906 -5.425781 4.195312 -5.609375 3.625 -5.609375 C 3.0625 -5.609375 2.628906 -5.425781 2.328125 -5.0625 C 2.023438 -4.695312 1.875 -4.117188 1.875 -3.328125 C 1.875 -2.535156 2.023438 -1.957031 2.328125 -1.59375 C 2.628906 -1.226562 3.0625 -1.046875 3.625 -1.046875 Z M 3.625 -1.046875 "/></g></g><g style="fill:#ffffff;fill-opacity:1;"><g transform="translate(213.440234, 237.850501)"><path style="stroke:none" d="M 2.1875 -6.65625 L 2.1875 -1.109375 L 5.171875 -1.109375 L 5.171875 0 L 0.859375 0 L 0.859375 -6.65625 Z M 2.1875 -6.65625 "/></g></g><g style="fill:#ffffff;fill-opacity:1;"><g transform="translate(226.300405, 237.850501)"><path style="stroke:none" d="M 2.1875 0 L 0.859375 0 L 0.859375 -6.65625 L 2.1875 -6.65625 Z M 2.1875 0 "/></g></g><g style="fill:#ffffff;fill-opacity:1;"><g transform="translate(236.819436, 237.850501)"><path style="stroke:none" d="M 3.625 0.09375 C 3.019531 0.09375 2.484375 -0.03125 2.015625 -0.28125 C 1.546875 -0.53125 1.179688 -0.910156 0.921875 -1.421875 C 0.660156 -1.929688 0.53125 -2.566406 0.53125 -3.328125 C 0.53125 -4.085938 0.660156 -4.722656 0.921875 -5.234375 C 1.179688 -5.742188 1.546875 -6.125 2.015625 -6.375 C 2.484375 -6.625 3.019531 -6.75 3.625 -6.75 C 4.238281 -6.75 4.773438 -6.625 5.234375 -6.375 C 5.703125 -6.132812 6.066406 -5.753906 6.328125 -5.234375 C 6.597656 -4.722656 6.734375 -4.085938 6.734375 -3.328125 C 6.734375 -2.566406 6.597656 -1.925781 6.328125 -1.40625 C 6.066406 -0.894531 5.703125 -0.515625 5.234375 -0.265625 C 4.773438 -0.0234375 4.238281 0.09375 3.625 0.09375 Z M 3.625 -1.046875 C 4.195312 -1.046875 4.628906 -1.226562 4.921875 -1.59375 C 5.222656 -1.957031 5.375 -2.535156 5.375 -3.328125 C 5.375 -4.117188 5.222656 -4.695312 4.921875 -5.0625 C 4.628906 -5.425781 4.195312 -5.609375 3.625 -5.609375 C 3.0625 -5.609375 2.628906 -5.425781 2.328125 -5.0625 C 2.023438 -4.695312 1.875 -4.117188 1.875 -3.328125 C 1.875 -2.535156 2.023438 -1.957031 2.328125 -1.59375 C 2.628906 -1.226562 3.0625 -1.046875 3.625 -1.046875 Z M 3.625 -1.046875 "/></g></g></g></svg>